<svg width="2351" height="525" viewBox="0 0 2351 525" fill="none" xmlns="http://www.w3.org/2000/svg">
<path d="M541 145.723C558.562 145.544 558.562 145.544 576.478 145.361C580.133 145.308 583.788 145.255 587.553 145.201C628.354 144.849 628.354 144.849 643.212 158.876C644.583 160.123 645.955 161.37 647.368 162.655C658.474 175.624 658.547 189.556 657.322 205.739C655.906 216.792 651.188 225.287 642.815 232.541C640.499 234.273 640.499 234.273 638.136 236.041C636.576 237.218 635.017 238.395 633.41 239.608C632.224 240.484 631.039 241.36 629.817 242.263C630.694 243.53 631.572 244.796 632.475 246.101C636.426 251.814 640.362 257.537 644.298 263.26C646.37 266.251 646.37 266.251 648.484 269.302C650.444 272.158 650.444 272.158 652.443 275.071C653.657 276.831 654.87 278.59 656.12 280.403C658.779 284.741 658.779 284.741 658.779 288.602C649.685 291.179 640.426 293.131 631.748 288.602C626.893 282.399 623.566 275.472 620.042 268.449C613.43 254.678 613.43 254.678 601.598 245.945C589.261 243.691 578.907 245.05 566.1 246.125C566.1 260.142 566.1 274.16 566.1 288.602C557.817 288.602 549.534 288.602 541 288.602C541 241.452 541 194.302 541 145.723Z" fill="#E3DBD4"/>
<path d="M1525.71 145.722C1537.73 145.563 1549.76 145.404 1562.15 145.24C1567.79 145.134 1567.79 145.134 1573.53 145.027C1595.45 144.786 1614.3 145.862 1630.99 161.802C1641.53 173.763 1642.79 185.155 1642.3 200.916C1640.35 218.167 1632.34 227.987 1619.04 238.665C1616.81 240.446 1616.81 240.446 1614.53 242.262C1615.4 243.597 1616.28 244.933 1617.18 246.308C1621.13 252.318 1625.07 258.332 1629.01 264.346C1630.39 266.448 1631.77 268.55 1633.19 270.715C1635.15 273.711 1635.15 273.711 1637.15 276.768C1638.37 278.618 1639.58 280.469 1640.83 282.375C1643.49 286.671 1643.49 286.671 1643.49 288.602C1634.36 290.91 1625.25 292.644 1616.46 288.602C1605.28 277.374 1598.37 262.093 1591.36 248.055C1577.98 247.418 1564.59 246.78 1550.81 246.124C1550.81 260.142 1550.81 274.159 1550.81 288.602C1542.53 288.602 1534.24 288.602 1525.71 288.602C1525.71 241.451 1525.71 194.301 1525.71 145.722Z" fill="#E3DBD4"/>
<path d="M1189.75 145.722C1214.85 145.722 1214.85 145.722 1223.38 153.641C1225.89 157.137 1228.31 160.696 1230.66 164.306C1231.96 166.163 1233.27 168.02 1234.61 169.934C1238.39 175.334 1242.07 180.796 1245.74 186.269C1248.23 189.802 1250.76 193.31 1253.3 196.81C1257.25 202.283 1261.14 207.797 1265.05 213.3C1272.7 223.494 1280.34 233.689 1288.22 244.193C1288.86 211.697 1289.49 179.202 1290.15 145.722C1297.8 145.722 1305.44 145.722 1313.32 145.722C1313.32 192.872 1313.32 240.022 1313.32 288.601C1290.15 288.601 1290.15 288.601 1284.77 284.905C1283.6 283.178 1282.43 281.451 1281.22 279.671C1279.82 277.71 1278.43 275.748 1276.99 273.728C1275.6 271.627 1274.21 269.526 1272.77 267.362C1270.61 264.323 1268.44 261.284 1266.26 258.255C1264.71 256.097 1263.18 253.931 1261.65 251.757C1252.51 238.779 1242.79 226.239 1233.09 213.678C1231.81 212.017 1230.53 210.357 1229.22 208.646C1228.08 207.17 1226.94 205.694 1225.76 204.173C1222.5 199.677 1219.64 194.894 1216.78 190.13C1216.14 222.625 1215.51 255.121 1214.85 288.601C1206.57 288.601 1198.28 288.601 1189.75 288.601C1189.75 241.451 1189.75 194.301 1189.75 145.722Z" fill="#E5DDD5"/>
<path d="M1743.78 145.533C1750.25 145.596 1756.72 145.659 1763.2 145.722C1773.92 168.345 1784.06 191.204 1794.09 214.145C1795.59 217.565 1797.09 220.985 1798.59 224.406C1801.5 231.054 1804.41 237.705 1807.31 244.358C1810.04 250.605 1812.79 256.842 1815.56 263.072C1816.51 265.22 1816.51 265.22 1817.48 267.412C1818.67 270.09 1819.86 272.765 1821.06 275.437C1824.98 284.306 1824.98 284.306 1824.98 288.601C1816.7 288.601 1808.42 288.601 1799.88 288.601C1788.54 266.638 1788.54 266.638 1786.37 255.777C1762.15 255.777 1737.94 255.777 1713 255.777C1711.08 262.149 1709.17 268.521 1707.2 275.085C1705.35 279.622 1703.45 284.142 1701.41 288.601C1693.13 288.601 1684.85 288.601 1676.31 288.601C1677.69 281.713 1678.75 277.138 1681.49 270.996C1682.16 269.488 1682.82 267.981 1683.51 266.428C1684.24 264.815 1684.96 263.202 1685.71 261.54C1686.46 259.839 1687.22 258.138 1688 256.386C1690.45 250.869 1692.91 245.359 1695.38 239.848C1697.06 236.078 1698.73 232.307 1700.41 228.536C1702.91 222.912 1705.41 217.289 1707.92 211.668C1712.65 201.049 1717.36 190.42 1722.02 179.767C1723 177.513 1723.99 175.259 1725 172.936C1726.77 168.883 1728.54 164.829 1730.3 160.774C1731.07 159.027 1731.83 157.281 1732.62 155.481C1733.27 153.998 1733.91 152.514 1734.58 150.985C1737.18 145.515 1737.28 145.749 1743.78 145.533Z" fill="#E5DCD5"/>
<path d="M708.98 145.722C742.749 145.722 776.519 145.722 811.312 145.722C811.312 152.73 811.312 159.739 811.312 166.96C785.826 166.96 760.339 166.96 734.08 166.96C734.08 179.704 734.08 192.447 734.08 205.577C757.018 205.577 779.956 205.577 803.589 205.577C803.589 213.222 803.589 220.868 803.589 228.746C780.651 228.746 757.713 228.746 734.08 228.746C734.08 241.489 734.08 254.233 734.08 267.362C760.204 267.362 786.328 267.362 813.243 267.362C813.243 274.371 813.243 281.38 813.243 288.601C778.836 288.601 744.429 288.601 708.98 288.601C708.98 241.451 708.98 194.301 708.98 145.722Z" fill="#E4DCD4"/>
<path d="M1371.24 145.722C1405.01 145.722 1438.78 145.722 1473.58 145.722C1473.58 152.73 1473.58 159.739 1473.58 166.96C1448.09 166.96 1422.6 166.96 1396.34 166.96C1396.34 179.704 1396.34 192.447 1396.34 205.577C1419.28 205.577 1442.22 205.577 1465.85 205.577C1465.85 212.585 1465.85 219.594 1465.85 226.815C1442.92 226.815 1419.98 226.815 1396.34 226.815C1396.34 240.196 1396.34 253.576 1396.34 267.362C1422.47 267.362 1448.59 267.362 1475.51 267.362C1475.51 274.371 1475.51 281.38 1475.51 288.601C1441.1 288.601 1406.69 288.601 1371.24 288.601C1371.24 241.451 1371.24 194.301 1371.24 145.722Z" fill="#E5DDD5"/>
<path d="M1035.29 145.722C1069.05 145.722 1102.82 145.722 1137.62 145.722C1137.62 152.73 1137.62 159.739 1137.62 166.96C1112.13 166.96 1086.64 166.96 1060.39 166.96C1060.39 179.704 1060.39 192.447 1060.39 205.577C1083.32 205.577 1106.26 205.577 1129.89 205.577C1129.89 212.585 1129.89 219.594 1129.89 226.815C1106.96 226.815 1084.02 226.815 1060.39 226.815C1060.39 240.196 1060.39 253.576 1060.39 267.362C1086.51 267.362 1112.63 267.362 1139.55 267.362C1139.55 274.371 1139.55 281.38 1139.55 288.601C1105.14 288.601 1070.73 288.601 1035.29 288.601C1035.29 241.451 1035.29 194.301 1035.29 145.722Z" fill="#E5DDD5"/>
<path d="M2245.9 145.722C2279.03 145.722 2312.16 145.722 2346.3 145.722C2346.3 152.73 2346.3 159.739 2346.3 166.96C2320.81 166.96 2295.33 166.96 2269.07 166.96C2269.07 179.704 2269.07 192.447 2269.07 205.577C2292 205.577 2314.94 205.577 2338.58 205.577C2338.58 212.585 2338.58 219.594 2338.58 226.815C2315.64 226.815 2292.7 226.815 2269.07 226.815C2269.07 240.196 2269.07 253.576 2269.07 267.362C2295.83 267.362 2322.59 267.362 2350.16 267.362C2350.16 274.371 2350.16 281.38 2350.16 288.601C2315.75 288.601 2281.35 288.601 2245.9 288.601C2245.9 241.451 2245.9 194.301 2245.9 145.722Z" fill="#E8DFD7"/>
<path d="M978.591 160.693C979.459 161.487 980.328 162.281 981.223 163.099C981.223 170.029 979.94 171.032 975.43 176.011C974.355 177.213 973.28 178.415 972.172 179.654C971.336 180.562 970.5 181.471 969.638 182.407C968.055 181.593 966.472 180.779 964.841 179.94C962.76 178.883 960.68 177.825 958.536 176.735C955.445 175.156 955.445 175.156 952.291 173.545C939.118 167.385 922.92 166.041 908.908 170.347C905.105 172.198 901.686 174.226 898.198 176.614C896.486 177.69 894.774 178.765 893.009 179.873C882.004 190.878 877.862 201.402 877.563 217.04C877.764 231.033 880.82 241.574 890.475 251.916C902.403 261.795 911.848 265.725 927.402 265.914C929.836 265.964 932.27 266.013 934.778 266.065C944.408 265.599 944.408 265.599 959.984 259.639C959.984 246.258 959.984 232.878 959.984 219.092C967.63 219.092 975.276 219.092 983.154 219.092C983.676 227.547 984.057 235.97 984.36 244.434C984.522 246.823 984.684 249.212 984.851 251.674C985.314 268.902 985.314 268.902 979.381 275.279C974.318 278.448 969.427 280.695 963.846 282.808C961.651 283.761 961.651 283.761 959.412 284.733C948.451 289.026 937.864 289.539 926.195 289.446C924.485 289.484 922.775 289.523 921.013 289.562C900.194 289.547 884.905 280.125 869.9 266.359C855.549 251.312 850.247 232.579 850.454 212.219C851.522 193.202 859.895 177.111 873.701 163.943C905.622 138.472 944.759 140.014 978.591 160.693Z" fill="#E3DBD3"/>
<path d="M2066.33 145.722C2075.25 145.722 2084.17 145.722 2093.36 145.722C2097.24 155.773 2101.12 165.825 2105 175.879C2106.31 179.281 2107.62 182.682 2108.93 186.083C2118.12 209.88 2127.09 233.747 2135.84 257.708C2147.77 228.152 2159.44 198.509 2170.89 168.763C2171.61 166.887 2171.61 166.887 2172.35 164.974C2173.66 161.567 2174.97 158.159 2176.28 154.75C2178.32 149.583 2178.32 149.583 2180.25 145.722C2188.53 145.722 2196.82 145.722 2205.35 145.722C2201.58 157.324 2197.48 168.684 2192.91 179.993C2192.29 181.555 2191.66 183.116 2191.02 184.724C2189 189.746 2186.98 194.765 2184.96 199.784C2183.57 203.243 2182.18 206.703 2180.79 210.162C2178.03 217.024 2175.28 223.885 2172.52 230.745C2167.35 243.587 2162.22 256.44 2157.08 269.293C2155.55 273.114 2154.02 276.936 2152.49 280.757C2151.46 283.346 2150.42 285.934 2149.36 288.601C2140.44 288.601 2131.52 288.601 2122.33 288.601C2115.02 270.258 2107.72 251.915 2100.42 233.569C2097.04 225.051 2093.65 216.534 2090.26 208.018C2086.99 199.806 2083.72 191.594 2080.45 183.38C2079.2 180.24 2077.95 177.099 2076.7 173.96C2074.96 169.578 2073.21 165.194 2071.47 160.81C2070.95 159.499 2070.43 158.188 2069.89 156.837C2066.33 147.873 2066.33 147.873 2066.33 145.722Z" fill="#E4DCD4"/>
<path d="M1848.15 145.722C1885.75 145.722 1923.34 145.722 1962.07 145.722C1962.07 152.73 1962.07 159.739 1962.07 166.96C1946.78 166.96 1931.49 166.96 1915.73 166.96C1915.73 207.102 1915.73 247.243 1915.73 288.601C1908.08 288.601 1900.44 288.601 1892.56 288.601C1892.56 248.46 1892.56 208.318 1892.56 166.96C1877.91 166.96 1863.25 166.96 1848.15 166.96C1848.15 159.952 1848.15 152.943 1848.15 145.722Z" fill="#E9DFD7"/>
<path d="M566.1 166.96C572.791 166.84 579.481 166.721 586.374 166.598C589.489 166.519 589.489 166.519 592.668 166.438C606.412 166.32 617.85 167.527 628.731 176.735C635.698 185.374 634.513 194.906 633.678 205.576C630.939 212.73 626.813 217.135 620.373 221.34C611.03 225.042 600.353 223.712 590.477 223.436C582.433 223.276 574.388 223.117 566.1 222.953C566.1 204.475 566.1 185.998 566.1 166.96Z" fill="#074253"/>
<path d="M1550.81 166.96C1557.46 166.801 1564.11 166.642 1570.96 166.478C1574.05 166.372 1574.05 166.372 1577.2 166.265C1592.23 166.092 1603.8 169.162 1615.61 178.666C1619.95 187.525 1619.79 195.911 1618.39 205.576C1614.13 214.41 1609.7 218.636 1601.01 222.954C1595.31 223.611 1595.31 223.611 1589.09 223.519C1586.06 223.498 1586.06 223.498 1582.98 223.475C1580.45 223.423 1577.92 223.37 1575.31 223.316C1567.22 223.196 1559.14 223.077 1550.81 222.954C1550.81 204.476 1550.81 185.998 1550.81 166.96Z" fill="#084253"/>
<path d="M2002.62 145.722C2010.26 145.722 2017.91 145.722 2025.79 145.722C2025.79 192.872 2025.79 240.022 2025.79 288.601C2018.14 288.601 2010.49 288.601 2002.62 288.601C2002.62 241.451 2002.62 194.301 2002.62 145.722Z" fill="#E9DFD7"/>
<path d="M727.153 340.706C733.347 340.48 739.54 340.344 745.737 340.223C748.354 340.126 748.354 340.126 751.024 340.027C762.11 339.865 768.666 340.81 777.354 348.429C781.903 355.253 782.161 357.766 781.216 365.806C777.807 371.715 774.446 376.437 769.631 381.252C771.373 384.726 773.15 388.182 774.94 391.63C775.926 393.557 776.912 395.483 777.927 397.468C781.299 402.618 783.249 404.299 788.939 406.353C788.939 408.264 788.939 410.176 788.939 412.145C783.841 412.145 778.744 412.145 773.492 412.145C771.23 408.047 768.979 403.944 766.734 399.836C766.09 398.672 765.445 397.507 764.781 396.307C759.977 387.482 759.977 387.482 759.977 383.183C755.517 382.546 751.056 381.909 746.461 381.252C746.461 388.898 746.461 396.544 746.461 404.422C749.647 405.059 752.833 405.696 756.115 406.353C756.115 408.264 756.115 410.176 756.115 412.145C746.558 412.145 737 412.145 727.153 412.145C727.153 410.234 727.153 408.322 727.153 406.353C730.976 405.397 730.976 405.397 734.876 404.422C734.876 385.944 734.876 367.466 734.876 348.429C732.328 348.429 729.779 348.429 727.153 348.429C727.153 345.88 727.153 343.331 727.153 340.706Z" fill="#D9D4CE"/>
<path d="M657.644 340.705C661.467 340.705 665.29 340.705 669.229 340.705C672.065 348.059 674.873 355.423 677.676 362.789C678.473 364.853 679.269 366.918 680.09 369.045C684.537 380.772 688.11 392.099 690.468 404.422C693.654 405.059 696.84 405.696 700.122 406.352C700.122 408.264 700.122 410.175 700.122 412.145C689.927 412.145 679.733 412.145 669.229 412.145C669.866 409.596 670.503 407.047 671.16 404.422C673.709 404.422 676.257 404.422 678.883 404.422C678.246 400.599 677.609 396.776 676.952 392.837C668.032 393.474 659.112 394.111 649.921 394.768C648.01 399.546 648.01 399.546 646.059 404.422C649.245 405.059 652.431 405.696 655.713 406.352C655.713 408.264 655.713 410.175 655.713 412.145C646.156 412.145 636.599 412.145 626.751 412.145C627.389 409.596 628.026 407.047 628.682 404.422C631.231 404.422 633.78 404.422 636.405 404.422C636.858 402.055 637.311 399.688 637.778 397.249C640.426 385.335 644.813 374.154 649.197 362.789C650.008 360.657 650.82 358.525 651.656 356.329C653.641 351.117 655.638 345.909 657.644 340.705Z" fill="#DDD7D0"/>
<path d="M1747.75 174.685C1749.02 174.685 1750.3 174.685 1751.61 174.685C1755.19 182.897 1758.77 191.11 1762.34 199.326C1763.55 202.123 1764.77 204.919 1765.99 207.715C1767.74 211.725 1769.48 215.737 1771.22 219.749C1771.77 221.006 1772.32 222.263 1772.89 223.558C1776.71 232.389 1776.71 232.389 1776.71 234.539C1759.51 234.539 1742.31 234.539 1724.58 234.539C1726.12 225.297 1727.64 219.537 1731.35 211.264C1732.3 209.124 1733.25 206.983 1734.23 204.778C1735.23 202.573 1736.22 200.368 1737.25 198.096C1738.26 195.846 1739.26 193.596 1740.3 191.277C1742.77 185.741 1745.25 180.21 1747.75 174.685Z" fill="#0A4355"/>
<path d="M817.901 340.705C834.467 340.705 851.033 340.705 868.102 340.705C868.102 346.44 868.102 352.174 868.102 358.082C865.553 358.082 863.004 358.082 860.378 358.082C859.741 355.534 859.104 352.985 858.448 350.359C847.934 349.403 847.934 349.403 837.209 348.428C837.209 356.074 837.209 363.72 837.209 371.598C844.855 371.598 852.501 371.598 860.378 371.598C860.378 374.147 860.378 376.695 860.378 379.321C852.732 379.321 845.086 379.321 837.209 379.321C837.209 387.604 837.209 395.887 837.209 404.422C844.855 404.422 852.501 404.422 860.378 404.422C861.016 400.599 861.653 396.776 862.309 392.837C864.858 392.837 867.406 392.837 870.032 392.837C870.032 399.208 870.032 405.58 870.032 412.145C852.829 412.145 835.626 412.145 817.901 412.145C817.901 410.233 817.901 408.322 817.901 406.352C822.679 405.397 822.679 405.397 827.555 404.422C827.555 385.944 827.555 367.466 827.555 348.428C824.369 348.428 821.183 348.428 817.901 348.428C817.901 345.88 817.901 343.331 817.901 340.705Z" fill="#E1DAD3"/>
<path d="M595.376 342.636C597.526 343.591 597.526 343.591 599.72 344.566C599.72 350.301 599.72 356.035 599.72 361.944C596.534 361.944 593.348 361.944 590.066 361.944C589.429 358.121 588.792 354.298 588.135 350.359C574.924 349.275 574.924 349.275 562.914 353.979C556.52 360.992 556.769 366.956 556.639 376.063C556.567 378.604 556.495 381.145 556.42 383.763C557.354 391.875 559.233 394.89 564.966 400.56C573.284 404.719 584.575 401.046 593.083 398.508C595.413 397.612 595.413 397.612 597.789 396.698C598.426 399.247 599.064 401.795 599.72 404.421C587.519 413.501 576.019 413.97 561.104 412.144C552.506 408.675 549.061 404.47 544.934 396.457C540.632 385.448 539.597 374.802 543.139 363.422C553.154 341.034 572.762 336.605 595.376 342.636Z" fill="#DCD6CF"/>
<path d="M746.461 350.359C749.209 350.239 751.957 350.12 754.788 349.997C757.106 349.896 757.106 349.896 759.471 349.793C763.838 350.359 763.838 350.359 767.308 352.848C769.631 356.151 769.631 356.151 769.51 363.03C767.7 369.667 767.7 369.667 764.562 372.442C758.449 373.89 752.717 373.769 746.461 373.528C746.461 365.882 746.461 358.236 746.461 350.359Z" fill="#094354"/>
<path d="M661.506 356.151C665.368 358.082 665.368 358.082 667.434 363.203C668.442 366.343 668.442 366.343 669.47 369.546C670.152 371.635 670.834 373.723 671.537 375.874C673.091 381.252 673.091 381.252 673.091 385.113C666.719 385.113 660.347 385.113 653.783 385.113C654.88 374.581 657.541 365.978 661.506 356.151Z" fill="#1A4F5E"/>
<path d="M211 14C211.33 14 211.66 14 212 14C212 23.4914 207.375 30.8438 203 39C201.106 42.7879 201.439 47.0371 202.578 51.0234C210.454 69.1368 238.655 79.1811 255 88C254.97 86.9649 254.941 85.9298 254.91 84.8633C255.133 75.2788 258.875 67.9163 265.555 61.1719C272.405 55.0872 280.011 52.154 288.5 49C303.702 43.588 303.702 43.588 313.883 31.6133C315.525 27.772 316.335 24.1209 317 20C317.33 20 317.66 20 318 20C318.523 28.1058 317.431 34.7494 312.203 41.2263C306.415 47.1869 300.414 50.8974 293 54.5625C283.365 59.3621 274.293 64.236 269 74C268.213 76.2576 268.213 76.2576 268 79C267.886 79.9784 267.886 79.9784 267.77 80.9766C267.043 92.7159 272.688 104.615 276.984 115.328C278.842 120.216 279.183 124.531 279.188 129.75C279.2 130.428 279.212 131.106 279.225 131.805C279.25 140.663 276.298 148.125 272.938 156.188C272.213 157.929 271.493 159.673 270.777 161.418C270.46 162.179 270.143 162.94 269.816 163.723C265.07 176.964 268.332 190.997 273.195 203.582C274 206 274 206 274 209C274.753 208.371 275.506 207.742 276.281 207.094C286.02 199.169 296.402 193.677 308 188.938C319.486 183.906 325.279 173.39 329.824 162.285C332.807 153.953 334.534 146.12 335.438 137.312C337.163 122.371 339.225 106.245 350.5 95.1875C359.374 88.2213 370.418 85.4254 381.125 82.5625C382.133 82.2911 383.141 82.0196 384.18 81.74C385.134 81.4971 386.088 81.2542 387.07 81.0039C387.924 80.7855 388.777 80.5671 389.657 80.342C392.111 79.9838 393.666 80.2235 396 81C395.382 81.2004 394.764 81.4009 394.127 81.6074C369.038 88.8195 369.038 88.8195 350.84 106.062C344.87 118.729 345.692 134.312 346 148C346.897 147.758 347.794 147.515 348.719 147.266C349.967 146.93 351.214 146.595 352.5 146.25C353.169 146.07 353.838 145.889 354.528 145.703C358.1 144.747 361.676 143.828 365.277 142.984C375.815 140.505 385.697 138.047 392.312 128.75C392.869 127.842 393.426 126.935 394 126C395 129 395 129 394.066 131.016C387.354 140.988 379.75 145.999 368.977 151.064C365.462 152.728 361.982 154.458 358.5 156.188C357.842 156.508 357.184 156.829 356.506 157.16C346.682 162.018 341.987 166.741 338.25 177.25C335.599 184.231 332.195 189.564 327 195C326.368 195.695 325.737 196.39 325.086 197.105C318.769 203.411 310.952 206.676 302.872 210.166C297.791 212.386 297.791 212.386 295 217C294.393 218.038 293.786 219.075 293.16 220.145C288.48 228.228 285.647 235.518 284.308 244.87C283.956 247.308 283.561 249.737 283.164 252.168C282.416 256.775 281.7 261.386 281 266C281.839 265.364 281.839 265.364 282.695 264.715C295.086 255.651 308.339 250.585 322.787 245.727C334.309 241.784 345.109 237.78 351.258 226.742C353.622 221.881 355.371 216.915 356.976 211.767C361.841 196.269 368.836 181.942 380 170C380.857 169.025 380.857 169.025 381.73 168.031C388.996 160.162 399.329 153.683 410 152C412.294 151.942 414.589 151.938 416.883 151.973C418.229 151.985 419.576 151.998 420.922 152.01C423.015 152.034 425.107 152.062 427.2 152.096C438.284 152.263 448.398 151.298 459 148C456.552 150.875 454.162 151.894 450.625 153.125C449.221 153.624 449.221 153.624 447.789 154.133C443.296 155.53 439.167 156.12 434.465 156.176C417.768 156.505 404.939 157.391 392 169C387.725 173.651 384.177 178.546 381 184C381.628 183.979 382.255 183.958 382.902 183.937C397.203 183.525 410.184 184.245 424 188C424.808 188.219 425.616 188.438 426.448 188.664C429.623 189.534 432.795 190.406 435.953 191.337C447.191 194.624 458.941 195.982 469.879 191.168C472.089 189.951 474.024 188.564 476 187C474.572 190.49 472.945 192.065 469.812 194.125C469.076 194.623 468.34 195.12 467.582 195.633C461.878 198.653 456.244 199.36 449.875 199.312C449.108 199.31 448.341 199.307 447.551 199.304C436.197 199.106 424.899 197.254 413.805 194.918C401.976 192.516 389.366 193.368 378.562 199.062C371.601 203.963 369.887 211.992 368.062 219.875C365.43 231.204 360.964 239.67 352.758 248.039C350.778 249.809 350.778 249.809 351 252C353.009 253.648 353.009 253.648 355.562 255.312C356.473 255.93 357.383 256.547 358.32 257.184C359.205 257.783 360.089 258.382 361 259C362.316 259.954 363.629 260.912 364.938 261.875C370.375 265.648 375.562 265.934 382 265C390.33 261.906 397.299 257.195 404.352 251.859C415.894 243.756 429.564 241.343 443.371 243.535C449.782 244.892 455.345 246.713 461 250C462.666 250.917 464.333 251.834 466 252.75C467.334 253.498 468.668 254.248 470 255C466.156 256.281 465.251 255.437 461.688 253.688C453.908 249.901 447.79 248.637 439.188 248.625C438.241 248.601 437.294 248.576 436.318 248.551C422.243 248.493 412.42 256.954 402.062 265.562C396.355 270.298 390.898 274.152 384 277C382.662 277.657 381.327 278.321 380 279C381.537 279.966 383.08 280.922 384.625 281.875C385.484 282.409 386.342 282.942 387.227 283.492C393.409 286.853 398.862 287.313 405.75 287.5C421.543 288.131 433.23 291.327 446 301C441.896 301 439.329 299.205 435.766 297.289C429.91 294.56 424.765 293.772 418.336 293.98C416.869 294.011 415.401 294.04 413.934 294.068C411.663 294.124 409.393 294.187 407.123 294.267C393.267 294.729 382.599 291.934 370.875 284.188C370.205 283.758 369.536 283.329 368.846 282.886C363.873 279.665 359.083 276.216 354.324 272.688C345.775 266.48 337.567 264.034 327 265C324.115 265.639 321.642 266.687 319 268C318.112 268.437 317.224 268.874 316.309 269.324C306.982 274.159 300.87 279.202 295.688 288.375C295.259 289.092 294.83 289.808 294.389 290.547C287.811 301.916 287.26 315.415 289.582 328.207C292.163 335.691 298.001 340.999 304.207 345.656C308.118 347.538 311.974 347.997 316.25 348.562C325.896 349.909 334.667 351.579 343.625 355.5C357.415 361.471 365.788 361.704 380 357C392.052 353.016 402.415 353.234 414.711 356.344C421.174 357.633 425.882 356.987 432 354.625C441.256 351.092 450.623 347.629 460.504 350.805C463.124 352.056 465.537 353.46 468 355C468.576 355.359 469.153 355.718 469.747 356.088C474.889 359.306 479.953 362.635 485 366C479.201 366.58 475.398 364.613 470.375 362.062C468.884 361.321 467.392 360.583 465.898 359.848C465.245 359.518 464.592 359.188 463.919 358.848C459.112 356.724 454.175 356.182 449 357C444.818 358.677 440.939 360.821 437 363C435.151 363.947 433.297 364.885 431.438 365.812C430.652 366.211 429.867 366.609 429.059 367.02C425.029 368.939 421.993 369.085 417.574 368.992C416.303 368.975 415.031 368.959 413.721 368.941C411.043 368.9 408.367 368.845 405.689 368.785C404.414 368.771 403.138 368.757 401.824 368.742C400.66 368.72 399.495 368.698 398.296 368.675C394.602 369.039 392.194 370.159 389 372C389.701 372.219 390.402 372.438 391.125 372.664C398.711 375.2 404.138 378.434 409.988 383.836C417.805 391.031 423.742 392.51 434.41 392.305C438.84 391.929 442.864 390.865 447.137 389.688C456.889 387.346 464.159 389.68 473 394C473 394.33 473 394.66 473 395C471.948 394.835 470.896 394.67 469.812 394.5C468.21 394.318 466.606 394.153 465 394C464.067 393.908 463.133 393.817 462.172 393.723C452.194 393.209 444.102 396.337 435 400C443.617 414.4 443.617 414.4 458 422C458 422.33 458 422.66 458 423C449.773 422.739 444.341 420.556 438.579 414.509C438.081 413.962 437.583 413.415 437.07 412.852C430.164 405.298 425.831 401.891 415.59 399.883C409.925 398.49 405.66 395.4 401 392C392.042 385.671 383.579 384.97 372.901 384.811C361.142 384.6 351.946 383.376 341 379C334.625 377.088 328.674 375.545 322 376C322.412 376.525 322.825 377.049 323.25 377.59C327.834 383.74 331.074 390.046 333.982 397.109C336.468 402.823 339.216 405.437 345.116 407.874C347.501 408.774 349.901 409.612 352.312 410.438C358.913 412.774 365.057 415.245 371 419C375.602 421.301 381.893 420.679 386.668 419.141C388.336 418.427 390.001 417.703 391.66 416.969C396.488 414.97 400.983 414.436 406.062 415.938C410.998 418.078 413.824 421.789 417 426C417.611 426.755 418.222 427.511 418.852 428.289C423.718 434.647 428 442.775 428 451C427.34 451 426.68 451 426 451C422 443 422 443 420.672 440.055C418.835 436.699 416.789 434.423 414.062 431.75C413.208 430.899 412.353 430.048 411.473 429.172C408.008 426.128 406.268 424.953 401.625 425.125C397.975 425.763 397.975 425.763 395.359 427.914C391.197 430.498 387.385 431.324 382.625 432.25C381.378 432.509 381.378 432.509 380.105 432.773C378.073 433.194 376.037 433.599 374 434C378.615 440.763 383.226 443.33 391.012 445.699C395.188 447.517 397.107 450.043 398.977 454.141C399.298 455.185 399.298 455.185 399.625 456.25C399.861 457.017 400.097 457.784 400.34 458.574C401.368 462.354 402.228 466.16 403 470C399.283 466.947 397.827 463.686 396.125 459.316C394.712 456.408 393.288 454.3 391 452C388.051 451.189 388.051 451.189 384.812 451.062C373.833 449.69 368.45 443.874 361.555 435.586C355.58 429.538 349.805 428.334 341.688 427.125C330.206 425.147 322.625 422.175 315.672 412.457C315.12 411.646 314.568 410.835 314 410C313.018 408.614 313.018 408.614 312.016 407.199C310.327 404.811 308.656 402.411 307 400C303.849 421.393 303.849 421.393 309 442C309.274 442.638 309.548 443.276 309.83 443.933C313.718 452.972 316.813 459.611 326 464C327.192 464.688 328.381 465.383 329.566 466.082C336.615 470.091 342.382 472.515 350.562 472.562C358.721 472.675 358.721 472.675 362.5 476.188C364.619 478.851 364.994 479.951 365.438 483.438C365.293 484.283 365.149 485.129 365 486C363 484 363 484 362 481C357.41 476.958 352.588 477.891 346.875 478.188C335.626 478.527 326.413 476.04 316 472C317.354 475.997 319.11 478.508 322 481.562C325.91 485.71 328.09 488.807 328.633 494.547C328.758 495.813 328.758 495.813 328.887 497.105C328.965 497.978 329.044 498.851 329.125 499.75C329.211 500.638 329.298 501.526 329.387 502.441C329.598 504.627 329.802 506.813 330 509C327.202 506.482 326.417 504.41 325.467 500.757C323.475 493.205 321.318 489.412 314.367 485.328C313.195 484.671 313.195 484.671 312 484C308.657 481.238 306.823 478.877 305.137 474.957C304.616 473.757 304.616 473.757 304.084 472.532C303.547 471.279 303.547 471.279 303 470C296.894 455.282 296.894 455.282 288.41 441.875C285.463 437.957 284.468 434.229 283.5 429.438C283.368 428.79 283.236 428.142 283.101 427.475C282.23 422.943 281.767 418.467 281.435 413.867C280.298 398.95 274.451 387.894 264 377C262.358 375.636 260.698 374.293 259 373C258.783 388.238 265.932 402.832 271.738 416.641C274.293 423.444 275.314 429.493 275.188 436.75C275.173 437.964 275.173 437.964 275.159 439.202C275.12 441.802 275.061 444.401 275 447C274.986 447.901 274.972 448.802 274.958 449.731C274.911 452.426 274.835 455.119 274.75 457.812C274.736 458.642 274.722 459.471 274.708 460.325C274.485 465.721 273.316 468.58 270 473C269.166 478.841 270.727 481.295 274 486C274.25 488.875 274.25 488.875 274 491C273.34 490.01 272.68 489.02 272 488C270.763 486.763 270.763 486.763 269.5 485.5C265.088 481.088 265.088 481.088 264.77 477.152C264.784 476.091 264.798 475.031 264.812 473.938C264.822 472.342 264.822 472.342 264.832 470.715C265 468 265 468 266 466C265.43 458.934 264.216 451.98 263 445C262.611 445.643 262.221 446.286 261.82 446.949C258.407 452.463 254.786 457.625 250.75 462.688C245.479 469.402 242.297 475.144 242.656 483.91C243.347 488.109 245.85 490.775 248.684 493.793C254.162 499.696 258 505.534 258 513.812C256.895 517.336 255.48 519.295 253 522C252.34 522.99 251.68 523.98 251 525C251.75 518.375 251.75 518.375 254 515C253.429 509.829 249.97 505.122 247 501C244.093 498.84 244.093 498.84 241 497C234.493 490.48 234.493 490.48 233 486C230.784 488.216 231.102 492.919 230.695 495.922C229.941 499.261 229.096 501.296 227 504C224.371 505.59 224.371 505.59 221.438 506.938C216.934 509.154 216.934 509.154 214.312 513.375C214.209 514.241 214.106 515.108 214 516C213.67 516 213.34 516 213 516C212.666 512.412 212.668 510.523 214.625 507.438C216.436 505.579 218.181 503.994 220.188 502.375C223.209 500.242 223.209 500.242 224 497C224.013 495.185 223.968 493.368 223.887 491.555C223.856 490.477 223.826 489.399 223.795 488.289C223.724 486.036 223.633 483.783 223.521 481.531C223.349 473.675 224.64 468.844 230 463C231.93 461.224 233.945 459.637 236 458C244.04 448.217 248.784 438.966 248.328 426.098C246.868 412.317 239.302 400.076 233 388C227.07 396.603 224.735 404.458 224 414.812C222.966 426.47 221.198 435.663 214.961 445.742C212.773 449.377 210.83 453.081 208.938 456.875C208.601 457.547 208.265 458.22 207.918 458.912C205.163 464.502 202.778 470.205 200.52 476.012C197.943 481.078 194.31 484.004 189.438 486.75C184.435 489.993 182.785 493.436 181 499C180.727 499.839 180.453 500.678 180.172 501.543C179.665 503.106 179.176 504.674 178.711 506.25C178 508 178 508 176 509C176.23 505.976 176.483 502.958 176.75 499.938C176.812 499.09 176.874 498.242 176.938 497.369C177.664 489.534 180.257 484.546 185.688 478.75C187.923 476.357 188.947 475.16 190 472C188.353 472.434 186.708 472.872 185.062 473.312C184.146 473.556 183.229 473.8 182.285 474.051C179.186 474.894 179.186 474.894 176.989 475.777C170.04 478.406 163.885 478.174 156.553 477.795C150.825 477.624 147.46 477.977 143 482C141.708 483.832 141.708 483.832 141.125 485.75C140.568 487.359 140.568 487.359 140 489C139 487 139 487 140.062 483.25C141.912 478.836 143.546 475.172 148 473C150.35 472.851 152.708 472.803 155.062 472.812C162.766 472.817 168.447 470.356 175.188 466.75C176.084 466.272 176.981 465.793 177.905 465.3C185.475 461.066 190.053 456.763 193.654 448.835C195 446 195 446 196.327 443.708C201.097 434.94 200.573 426.495 200.312 416.812C200.287 415.176 200.265 413.54 200.244 411.904C200.19 407.935 200.104 403.968 200 400C196.96 402.988 194.347 405.734 192.125 409.375C186.561 417.906 180.473 423.481 170.438 425.836C165.822 426.786 161.191 427.66 156.535 428.383C148.869 429.81 144.228 435.467 139.438 441.188C134.938 446.475 129.749 449.245 123 451C121.459 451.113 119.917 451.217 118.375 451.312C115.164 451.646 114.239 451.799 111.688 453.938C109.372 458.14 107.644 462.497 106 467C105.67 467 105.34 467 105 467C104.446 460.625 106.014 455.645 109 450C112.014 446.53 115.181 445.578 119.438 444.188C125.121 442.275 127.555 439.841 131 435C130.285 434.853 129.569 434.706 128.832 434.555C121.682 432.945 115.523 430.563 109.008 427.207C105.72 425.888 103.509 425.662 100 426C97.6339 427.234 96.0061 428.31 94 430C93.3464 430.548 92.6929 431.096 92.0195 431.66C87.1751 436.087 84.5454 440.367 82.2031 446.484C80.8694 449.273 79.2849 450.946 77 453C76.34 452.67 75.68 452.34 75 452C75.6942 451.455 75.6942 451.455 76.4023 450.898C78.5839 448.306 78.8538 445.927 79.5625 442.625C82.4646 431.812 89.2295 423.853 98 417C102.323 414.838 107.37 415.487 111.84 416.895C112.821 417.259 113.802 417.624 114.812 418C121.57 420.34 128.015 422.099 134.91 419.196C137.79 417.769 140.584 416.23 143.354 414.602C147.784 412.028 151.777 410.407 156.744 409.187C162.726 407.654 166.654 406.142 170.043 400.758C172.261 396.694 174.126 392.49 175.961 388.242C178.039 383.759 180.978 379.892 184 376C172.02 376.056 160.267 380.244 149 384C147.065 384.115 145.126 384.178 143.188 384.211C142.029 384.239 140.87 384.268 139.676 384.297C137.257 384.348 134.837 384.393 132.418 384.43C122.611 384.689 113.484 385.697 105.25 391.438C103.875 392.358 103.875 392.358 102.473 393.297C101.657 393.859 100.841 394.421 100 395C95.3504 398.07 91.5581 399.408 86.125 400.75C77.3288 403.131 72.5255 407.872 66.875 414.75C62.7126 419.745 58.5267 422 52.0625 422.75C50.7094 422.849 49.3553 422.939 48 423C50.3624 421.425 52.1898 420.497 54.75 419.438C59.9909 416.86 62.7448 412.704 66 408C66.9007 406.734 67.8031 405.47 68.707 404.207C69.4637 403.149 70.2204 402.09 71 401C56.5661 394.644 56.5661 394.644 41 394C40.0989 394.083 39.1979 394.165 38.2695 394.25C36.1751 394.458 34.0863 394.722 32 395C36.6961 390.304 43.392 388.725 49.875 388.562C54.0944 388.697 57.814 389.371 61.875 390.5C70.842 392.956 80.5335 393.749 88.9922 389.332C91.8958 387.406 94.4163 385.166 96.9688 382.801C102.639 377.774 109.186 374.221 116 371C110.292 368.804 105.307 368.98 99.2393 369.231C85.4479 369.77 76.4974 368.465 65 361C58.4895 357.352 53.5376 355.471 46 357C41.4836 358.691 37.2025 360.853 32.918 363.055C26.737 366.203 21.8685 367.237 15 367C17.7403 365.568 20.4629 364.466 23.375 363.438C28.7415 361.34 33.3391 358.385 38.0894 355.174C46 349.857 52.5204 348.857 62 350C65.8642 351.152 69.4146 352.836 73.0391 354.59C80.182 357.992 86.5055 357.469 94 355.5C107.425 352.298 117.778 353.545 130.355 358.59C140.608 362.557 148.136 361.088 158 357C159.089 356.506 160.179 356.013 161.301 355.504C169.662 351.839 177.412 350.019 186.503 349.025C195.642 347.998 203.751 346.163 210 339C219.131 325.98 221.592 313.687 219.25 297.938C217.455 288.491 214.977 278.019 208 271C204.176 268.53 200.2 266.737 196 265C195.091 264.598 194.182 264.196 193.246 263.781C188.49 261.748 184.203 260.359 179 260C177.675 259.87 177.675 259.87 176.324 259.738C163.085 258.966 154.52 266.032 145.098 274.309C135.765 282.491 126.775 287.782 114.051 287.422C106.698 286.405 99.7283 283.444 92.8438 280.777C87.7307 278.818 83.5705 277.235 78 278C75.9847 278.969 73.9817 279.964 72 281C71.01 280.67 70.02 280.34 69 280C70.4849 278.978 71.9889 277.983 73.5 277C74.753 276.165 74.753 276.165 76.0312 275.312C83.8964 271.835 93.2616 275.002 101.336 276.578C113.048 278.974 113.048 278.974 124.188 275.938C130.707 271.264 135.643 265.403 140.422 259.016C141.847 257.195 143.327 255.592 145 254C144.224 254.182 143.448 254.364 142.648 254.551C140.354 255.085 138.059 255.611 135.762 256.133C133.363 256.686 130.968 257.262 128.582 257.867C116.839 260.705 105.484 261.965 94.1758 257.074C89.8291 255.604 85.4754 255.094 80.9375 254.5C67.9998 252.714 58.8478 248.995 49 240C47.095 237.459 45.4137 234.847 43.7109 232.168C40.8532 228.547 37.2953 227.35 33 226C31.9894 225.608 30.9787 225.216 29.9375 224.812C26.2872 223.803 22.7666 223.39 19 223C20.8062 221.037 22.2104 220.034 24.918 219.918C32.811 220.658 41.2469 222.247 47 228C47.3635 228.505 47.727 229.011 48.1016 229.531C53.4519 236.753 62.592 241.197 71 244C73.9602 244.156 76.913 244.276 79.875 244.375C85.8053 244.617 91.3437 245.103 97.125 246.562C111.24 250.122 123.198 244.988 136.375 239.895C139.872 238.703 143.408 237.864 147 237C146.306 236.789 145.611 236.578 144.896 236.361C107.8 225.016 107.8 225.016 98.5977 209.016C97.0105 206.02 95.5172 202.992 94.0371 199.942C89.0543 189.709 84.8037 182.754 74 178C68.4844 176.294 62.6493 176.397 57.125 178C48.2724 180.424 40.0051 179.477 32 175C29.4607 173.134 27.2852 171.186 25 169C28.3905 169 29.1601 169.573 31.875 171.438C34.9999 173.442 37.2335 174.731 41 175C41.7064 175.062 42.4128 175.124 43.1406 175.188C48.1336 175.439 51.905 174.849 56.5625 173C65.1516 169.632 71.5308 170.617 80.1406 173.742C84.352 175.595 87.6398 177.876 91 181C91.5466 181.505 92.0931 182.011 92.6562 182.531C97.1238 187.167 100.183 192.556 103.438 198.062C109.806 208.762 116.329 215.424 128.658 218.708C131.495 219.325 134.337 219.89 137.188 220.438C148.681 222.8 159 226.051 169.625 231.125C178.831 235.467 188.395 237.11 198.337 238.869C201.918 239.525 205.253 240.311 208.625 241.688C212.25 243.097 214.186 243.811 218 243C226.131 237.555 230.424 227.104 233 218C234.022 209.705 233.658 203.05 228.754 196.121C221.318 187.129 213.293 185.753 202 184.125C187.788 181.846 176.129 173.861 165.289 164.797C160.128 160.746 155.988 158.877 149.445 158.867C148.583 158.866 147.721 158.865 146.832 158.863C145.492 158.869 145.492 158.869 144.125 158.875C143.239 158.871 142.354 158.867 141.441 158.863C136.822 158.87 132.557 159.204 128 160C125 160.215 122.007 160.275 119 160.312C118.219 160.342 117.438 160.371 116.633 160.4C108.799 160.486 104.748 156.881 99.1875 151.625C90.7495 143.923 83.4855 139.378 72 138C72 137.67 72 137.34 72 137C85.8516 136.34 95.7191 142.457 106.406 150.801C110.574 153.937 115.018 153.533 120 153C124.958 151.944 129.83 150.566 134.707 149.191C145.361 146.207 156.804 145.006 167 150C166.843 148.907 166.685 147.814 166.523 146.688C165.751 140.53 165.689 134.332 165.57 128.133C165.333 120.984 164.623 114.825 159.562 109.375C152.541 104.253 144.225 101.071 136.264 97.7249C110.858 87.0404 110.858 87.0404 106 79C105.188 75.125 105.188 75.125 105 72C106.186 73.779 107.358 75.5673 108.5 77.375C115.194 84.4037 125.061 86.2944 134.188 88.4375C165.914 96.3186 165.914 96.3186 173.805 107.574C178.251 115.201 179.677 122.056 180.639 130.725C181.737 140.452 183.487 149.687 189 158C195.881 163.308 204.929 163.371 213.25 163.938C221.458 164.563 229.134 165.463 237 168C237.206 167.196 237.412 166.391 237.625 165.562C240.266 158.72 244.534 153.397 249.5 148.062C255.023 142.007 260.242 136.206 260.625 127.688C260.012 118.263 257.578 109.281 250.848 102.438C242.713 95.4742 233.861 89.3711 225.074 83.2656C198.697 64.8962 198.697 64.8962 196 51C194.63 42.0833 198.67 36.7351 203.629 29.6836C207.136 24.6296 209.396 19.9514 211 14Z" fill="#E6DDD5"/>
<path d="M372 45C371.669 45.6136 371.337 46.2272 370.996 46.8594C369.325 52.127 369.959 57.5126 370.166 62.9883C370.304 69.5865 369.845 76.1906 365.759 81.6614C363.063 84.2723 360.532 85.3594 356.875 85.625C353 85 353 85 350.625 82.875C346.98 76.4267 346.211 71.1898 348 64C351.591 55.6635 357.542 48.8912 365.813 45C369 44 369 44 372 45Z" fill="#E3DBD4"/>
<path d="M132 43C139.29 44.1146 144.915 48.2054 149.375 54C150.269 55.3208 151.146 56.6532 152 58C152.619 58.9075 153.238 59.815 153.875 60.75C155.872 66.5192 156.266 72.7609 154.016 78.5195C151.05 83.5987 151.05 83.5987 148.047 84.7461C144.637 85.1691 142.164 84.243 139 83C134.622 78.7402 132.916 74.0367 132.812 68C132.896 64.5931 133.44 61.361 134 58C134.265 52.4401 133.757 48.2701 132 43Z" fill="#E4DBD4"/>
<path d="M235 9C235.66 9 236.32 9 237 9C239.743 16.2599 239.533 22.9116 236.801 30.1992C233.675 36.8684 230.716 41.6421 224 45C222.126 45.0703 220.25 45.0843 218.375 45.0625C217.372 45.0535 216.369 45.0445 215.336 45.0352C214.565 45.0236 213.794 45.012 213 45C210.343 40.4614 209.343 37.2582 210 32C213.516 24.8227 220.242 21.13 226.75 16.9375C230.217 14.6762 232.532 12.3564 235 9Z" fill="#E5DCD5"/>
<path d="M270 5C270.075 5.67805 270.15 6.35609 270.227 7.05469C271.157 13.6408 272.996 18.1607 276.602 23.7188C279.488 28.4271 280.698 33.5308 280 39C277.94 42.7521 275.868 46.0073 272 48C267.539 48.1206 264.831 45.5614 261.551 42.8633C257.266 37.7154 257.466 31.0605 257.547 24.6875C258.261 18.8728 262.585 5 270 5Z" fill="#E5DCD5"/>
<path d="M198 198C198.66 198 199.32 198 200 198C200.392 198.887 200.784 199.774 201.187 200.688C203.121 204.222 205.061 206.257 208 209C218.695 219.256 218.695 219.256 219.437 225.938C219.281 230.537 217.244 233.756 214 237C209.039 237.726 205.919 236.399 201.898 233.688C197.095 229.418 194.39 223.368 194 217C193.907 215.875 193.907 215.875 193.812 214.727C193.494 208.257 194.934 203.666 198 198Z" fill="#E4DCD5"/>
<path d="M216 104C216.52 104.338 217.039 104.675 217.574 105.023C222.598 108.237 226.953 110.53 232.813 111.875C238.69 113.319 243.429 115.233 247.5 119.812C249.697 124.481 249.617 128.149 248 133C243.487 136.043 238.213 135.593 233 135C225.67 131.617 220.468 124.903 217.563 117.5C216.024 112.805 215.63 108.91 216 104Z" fill="#E5DCD5"/>
<path d="M197 111C202.957 115.439 206.815 119.788 209 127C210.064 135.309 209.649 141.959 205 149C202.285 152.202 200.095 152.811 196.004 153.203C194 153 194 153 191.063 150.75C187.556 146.074 187.348 141.654 188 136C189.016 132.977 190.426 130.24 191.938 127.438C194.913 121.831 196.548 117.373 197 111Z" fill="#E5DCD5"/>
<path d="M315.937 49.8128C317.189 49.8224 317.189 49.8224 318.465 49.8323C321 50.0003 321 50.0003 323.328 50.5081C326.829 51.153 330.268 51.1068 333.812 51.0628C334.505 51.0582 335.198 51.0537 335.912 51.0491C337.608 51.0374 339.304 51.0195 341 51.0003C338.957 57.9043 335.651 62.5898 329.598 66.5862C322.451 70.3962 315.797 72.1613 307.836 69.7854C304.638 68.418 302.96 66.8451 301 64.0003C300.841 59.5422 301.475 57.6382 304.312 54.1878C308.25 50.983 310.833 49.7262 315.937 49.8128Z" fill="#E3DBD4"/>
<path d="M476.438 216.5C477.706 217.242 477.706 217.242 479 218C478.01 218.66 477.02 219.32 476 220C471.727 223.437 467.88 227.028 464.375 231.25C460.559 235.705 457.377 237.749 451.438 238.375C447.64 237.96 445.757 237.673 443 235C442.293 230.205 442.454 228.052 444.688 223.75C452.457 214.511 465.073 211.576 476.438 216.5Z" fill="#E5DCD5"/>
<path d="M344 278C347.358 278 349.92 278.057 352.535 280.34C357.056 285.731 357.309 289.234 357 296C356.835 296.804 356.67 297.609 356.5 298.438C355.441 303.867 355.451 309.676 357 315C348.332 311.15 343.299 306.103 338.75 297.688C337.209 292.166 337.104 287.643 339.875 282.562C342 280 342 280 344 278Z" fill="#E4DCD4"/>
<path d="M311 111C311.675 119.812 309.832 126.347 305.25 133.875C300.105 138.734 294.998 140.446 287.98 140.434C285.424 139.874 284.53 139.111 283 137C282.105 132.692 282.431 129.025 284.562 125.188C289.17 121.053 293.849 118.998 299.625 117C302.936 115.854 308.226 111 311 111Z" fill="#E5DCD5"/>
<path d="M47.5 245.625C50 248 50 248 50.625 250.875C49.5809 256.095 47.2326 258.935 43.25 262.375C37.2057 265.476 29.5537 264.779 23 264C18.9506 262.573 14.9883 260.977 13 257C14.0725 256.691 15.145 256.381 16.25 256.063C21.6684 254.075 25.8899 250.501 30.3633 246.961C35.7984 242.919 41.5421 242.859 47.5 245.625Z" fill="#E4DCD4"/>
<path d="M322 80C323.515 82.2729 324.62 84.2436 325.75 86.6875C327.666 90.5982 330.043 93.9204 332.73 97.3359C335.72 101.255 335.575 105.237 335 110C333.437 113.062 333.437 113.062 331 115C326.872 115.675 324.828 115.508 321.25 113.312C315.834 107.746 314.596 102.3 314.641 94.7422C315.363 89.226 318.073 83.9274 322 80Z" fill="#E3DBD4"/>
<path d="M450.817 251.508C455.303 252.519 458.141 255.546 461 259C462.677 261.767 464.162 264.574 465.613 267.465C467.354 270.646 469.26 272.663 472 275C466.852 277.574 459.382 276.763 454.059 275.059C448.22 272.283 444.829 269.309 441.688 263.625C440.764 260.099 441.137 257.519 442 254C445.122 251.919 447.079 251.384 450.817 251.508Z" fill="#E4DBD4"/>
<path d="M308 77C307.72 83.5903 305.222 87.9783 301 93C296.073 97.3957 291.683 99.3509 285.008 99.2031C281.856 98.8843 280.249 98.2491 278 96C277.345 91.4899 277.374 89.2245 279.437 85.1875C285.208 80.2616 292.16 79.659 299.519 79.3086C302.65 78.9191 304.913 77 308 77Z" fill="#E3DBD4"/>
<path d="M152.812 115.312C155.179 117.138 156.159 118.142 157 121C156.91 124.597 156.291 125.717 153.688 128.25C149.091 131.243 144.444 131.811 139 131C132.185 128.655 126.921 125.106 123 119C122.67 118.01 122.34 117.02 122 116C123.237 116.062 124.475 116.124 125.75 116.187C129.794 116.213 133.233 115.516 137.125 114.437C143.032 112.854 147.168 112.678 152.812 115.312Z" fill="#E2DAD3"/>
<path d="M156 269C159.959 269.176 161.542 269.517 164.312 272.438C167.673 277.541 167.693 281.974 167 288C164.801 294.352 160.653 299.369 155 303C154.34 303 153.68 303 153 303C152.867 302.024 152.734 301.048 152.598 300.043C152.421 298.771 152.244 297.498 152.062 296.188C151.888 294.923 151.714 293.658 151.535 292.355C151.096 289.017 151.096 289.017 150 286C148.953 276.342 148.953 276.342 152.437 271.875C153.283 271.256 154.129 270.637 155 270C155.33 269.67 155.66 269.34 156 269Z" fill="#E3DBD3"/>
<path d="M68 101C74.0145 101.301 77.7125 104.039 82 108C85.5171 112.098 87.7874 115.789 88.3125 121.25C87.9235 125.918 86.5353 128.118 84 132C81.097 132.346 78.8746 132.519 76.3008 130.992C73.5965 128.805 72.1111 127.333 71 124C70.7723 120.718 70.6081 117.443 70.4824 114.156C70.2495 109.48 69.4413 105.458 68 101Z" fill="#E3DBD4"/>
<path d="M432 116C431.119 122.492 427.203 126.249 422.367 130.402C417.377 133.789 411.838 133.882 406 133C402.812 131.375 402.812 131.375 401 129C400.375 126.062 400.375 126.062 401 123C403.438 120.188 403.438 120.188 406 118C406.33 117.67 406.66 117.34 407 117C408.597 116.843 410.201 116.749 411.805 116.684C412.781 116.642 413.756 116.6 414.762 116.557C415.789 116.517 416.816 116.478 417.875 116.438C418.895 116.394 419.914 116.351 420.965 116.307C428.353 116 428.353 116 432 116Z" fill="#E4DCD4"/>
<path d="M384.312 295.5C388.084 295.609 388.818 295.85 391.875 298.375C394.221 301.782 395.258 305.496 396.312 309.461C397.479 313.77 399.002 318.004 401 322C394.643 322.454 390.267 321.722 385 318C381.406 314.644 378.073 310.886 377 306C377.129 299.971 377.576 295.772 384.312 295.5Z" fill="#E3DBD4"/>
<path d="M428 220C427.685 220.45 427.371 220.9 427.047 221.364C424.392 225.354 422.567 229.044 421.125 233.625C419.304 238.904 416.999 242.339 412 245C408.75 245.563 408.75 245.563 406 245C403.168 242.852 402.128 240.897 401.625 237.375C402.262 231.645 404.799 227.868 409.172 224.157C415.419 219.938 420.578 219.238 428 220Z" fill="#E3DBD4"/>
<path d="M311 135C311.66 135 312.32 135 313 135C313.33 136.114 313.66 137.227 314 138.375C315.405 142.274 317.42 144.751 320.187 147.812C324.094 152.452 324.824 155.667 324.574 161.652C323.91 164.366 323.245 165.365 321 167C317.625 167.5 317.625 167.5 314 167C309.391 163.439 306.481 159.354 305.644 153.523C305.264 146.225 307.244 141.183 311 135Z" fill="#E1DAD3"/>
<path d="M390 200C395.215 202.499 398.344 206.626 402.031 210.938C404.523 213.548 406.652 214.745 410 216C404.078 220.697 398.347 220.661 391 220C386.397 218.703 383.668 216.752 380.5 213.188C378.739 209.446 378.46 207.089 379 203C381.185 198.766 385.81 199.311 390 200Z" fill="#E4DCD5"/>
<path d="M381 117C380.751 123.958 378.894 128.021 374 133C370.258 136.186 366.797 138.275 361.812 138.5C355.799 137.711 355.799 137.711 353 135C352.307 130.84 352.513 128.783 354.75 125.188C359.874 120.206 365.589 120.321 372.469 119.562C375.23 119.123 378.414 117 381 117Z" fill="#E4DCD4"/>
<path d="M121 92.9997C123.938 94.6247 123.938 94.6247 126 96.9997C126.708 100.699 126.333 102.404 124.5 105.687C119.318 110.48 113.408 111.573 106.469 111.359C102.545 110.788 99.196 109.342 96 107C95.34 106.01 94.68 105.02 94 104C94.8353 103.671 94.8353 103.671 95.6875 103.336C100.797 101.213 104.979 98.7597 109.273 95.2692C112.956 92.5613 116.587 92.6193 121 92.9997Z" fill="#E3DBD4"/>
<path d="M425.73 301.601C430.629 302.461 432.997 305.638 435.781 309.418C436.974 311.128 438.145 312.854 439.289 314.597C441.003 317.004 442.857 318.974 445 321C440.368 323.633 436.218 323.73 431 323C424.227 320.658 419.273 317.546 416 311C415.541 305.611 415.541 305.611 417.246 303.34C420.009 301.229 422.354 301.46 425.73 301.601Z" fill="#E1D9D2"/>
<path d="M429.625 265C431.296 265.99 431.296 265.99 433 267C432.388 267.297 431.775 267.593 431.145 267.899C426.714 270.174 423.656 273.347 420.5 277.125C416.034 282.294 416.034 282.294 412 283C408.58 282.823 406.001 282.563 403 280.875C401.313 277.712 402.127 275.375 403 272C408.523 262.501 420.144 260.31 429.625 265Z" fill="#E0D9D2"/>
<path d="M330 205C330.654 205.171 331.307 205.343 331.98 205.519C334.607 206.144 337.054 206.094 339.75 206.062C340.735 206.053 341.72 206.044 342.734 206.035C343.482 206.023 344.23 206.012 345 206C342.161 213.342 338.713 216.738 331.594 220.047C327.638 221.5 325.197 221.629 321 221C317.857 219.253 315.531 217.531 313 215C313.09 211.663 314.018 209.972 315.875 207.187C320.434 203.996 324.596 204.436 330 205Z" fill="#E2DBD3"/>
<path d="M164 199C169.414 199.338 173.269 202.292 177 206C180.36 210.665 182.451 215.052 182 220.875C181.356 224.213 180.754 226.816 178 229C174.254 229.651 172.53 229.313 169.25 227.375C165.119 223.014 164.787 218.322 164.873 212.576C164.894 211.829 164.916 211.082 164.938 210.312C165.149 204.581 165.149 204.581 164 199Z" fill="#E1DAD3"/>
<path d="M165 39C166.237 39.4538 167.475 39.9075 168.75 40.375C172.562 41.6759 176.196 42.3568 180.188 42.875C185.636 43.695 188.271 44.9684 192 49C193.414 51.8288 193.319 53.8738 193 57C191.245 59.2886 189.823 59.8544 187.012 60.3516C181.802 60.6935 178.122 59.6931 173.859 56.6836C169.467 52.7066 166.005 47.8824 165.125 41.9375C165.084 40.9681 165.043 39.9987 165 39Z" fill="#E3DBD3"/>
<path d="M351 20C350.546 27.2623 347.777 32.3616 342.5 37.375C337.636 40.5366 333.857 41.6276 328 41C325 39.4375 325 39.4375 323 37C322.812 33.5625 322.812 33.5625 324 30C328.444 25.4678 331.925 24.1349 338.125 23.3125C342.255 22.7025 347.236 20 351 20Z" fill="#E3DBD4"/>
<path d="M101 119C106.361 119.631 110.137 121.851 113.68 125.938C117.834 131.343 119.484 134.987 119 142C117.595 144.873 116.255 146.745 114 149C111.125 148.938 111.125 148.938 108 148C104.424 144.231 102.909 141.617 102.719 136.5C102.681 135.613 102.644 134.726 102.605 133.812C102.535 131.938 102.465 130.062 102.395 128.188C102.357 127.301 102.32 126.414 102.281 125.5C102.251 124.685 102.221 123.871 102.189 123.031C102.117 120.933 102.117 120.933 101 119Z" fill="#E0D9D2"/>
<path d="M193 0C193.049 0.59168 193.098 1.18336 193.148 1.79297C193.223 2.58316 193.298 3.37336 193.375 4.1875C193.445 4.9648 193.514 5.74211 193.586 6.54297C193.912 9.04865 193.912 9.04865 195.016 11.4219C196.163 14.4271 196.334 16.8521 196.375 20.0625C196.403 21.0847 196.432 22.107 196.461 23.1602C195.886 26.7025 194.784 27.8096 192 30C189.062 31.125 189.062 31.125 186 31C182.274 28.2461 181.249 26.5529 180.516 21.9844C180.211 14.7016 181.047 9.47735 186 4C190.3 0 190.3 0 193 0Z" fill="#E5DCD5"/>
<path d="M175 177C178 178.563 178 178.563 180 181C180.16 185.393 179.499 187.377 176.75 190.813C171.811 194.741 167.791 195.44 161.578 195.328C157.6 194.822 154.255 193.329 151 191C150.67 190.34 150.34 189.68 150 189C150.629 188.637 151.258 188.273 151.906 187.899C156.235 185.356 160.312 182.823 164.188 179.625C167.854 176.816 170.323 176.118 175 177Z" fill="#E2DAD3"/>
<path d="M296 160C295.966 167.248 294.156 171.855 289 177C285.619 179.804 282.209 181.239 277.812 181.5C274 181 274 181 271.438 179.438C270 177 270 177 269.875 173.562C271.227 169.28 273.286 167.315 277 165C279.699 163.956 282.419 163.331 285.25 162.75C288.6 162.006 292.774 160 296 160Z" fill="#E2DAD3"/>
<path d="M174 65C178.127 67.8999 180.072 70.3486 182 75C182.792 80.8062 183.597 87.8487 179.938 92.8125C176.404 95.4436 174.41 96.2405 170 96C166.757 93.4224 166.106 91.5412 165.312 87.5C165.541 82.0518 168.658 77.6271 171.371 73.0508C172.866 70.2507 173.589 68.1195 174 65Z" fill="#E6DDD6"/>
<path d="M447 122C446.406 124.877 445.8 127.752 445.188 130.625C445.022 131.433 444.856 132.241 444.686 133.074C443.499 138.58 442.215 143.709 438.188 147.875C435.224 149.399 433.285 149.489 430 149C427.681 147.222 427.123 145.802 426.684 142.941C426.396 137.436 427.301 134.268 431 130C435.896 125.162 439.88 122 447 122Z" fill="#E3DBD4"/>
<path d="M144 162C146.875 163.563 146.875 163.563 149 166C149.073 169.991 148.401 172.322 146.375 175.75C140.95 180.89 135.817 181.428 128.602 181.239C125.514 180.956 122.845 180.231 120 179C120 178.34 120 177.68 120 177C121.011 176.505 122.021 176.01 123.062 175.5C127.027 173.266 129.488 170.301 132.375 166.84C135.682 163.096 138.973 161.121 144 162Z" fill="#E3DBD4"/>
<path d="M461.516 280.804C464.87 282.407 467.55 284.171 470 287C470 287.66 470 288.32 470 289C469.182 289.147 469.182 289.147 468.348 289.297C464.076 290.144 460.354 291.2 456.437 293.125C451.941 295.204 448.938 295.74 444 295C440.937 292.812 440.937 292.812 439 290C438.724 286.322 439.953 285.059 442.25 282.187C447.537 278.152 455.476 278.872 461.516 280.804Z" fill="#E3DBD3"/>
<path d="M239 44C244.279 46.7863 247.705 50.4802 250 56C250.566 60.9355 250.675 65.4972 248.625 70.0625C245.394 73.9148 245.394 73.9148 242.688 74.5C239.387 73.886 237.936 72.506 235.949 69.8359C234.274 66.5955 234.376 63.4819 235 60C235.663 57.9607 236.434 56.0074 237.266 54.0312C238.457 50.736 238.689 47.4791 239 44Z" fill="#E2DAD3"/>
<path d="M420 86.9997C419.402 87.9484 418.804 88.8972 418.187 89.8747C416.44 92.8908 415.411 95.7638 414.5 99.1247C413.366 103.196 412.046 105.954 409 109C405.957 110.521 403.346 110.239 400 110C397.517 106.275 397.367 103.315 398 98.9997C402.25 89.7607 410.326 86.0783 420 86.9997Z" fill="#E3DBD4"/>
<path d="M405 51.9999C404.402 52.763 403.804 53.5262 403.188 54.3124C401.178 57.2742 400.348 60.0964 399.5 63.5624C398.42 67.8999 397.29 70.8162 394 73.9999C390.987 75.5065 388.317 75.1776 385 74.9999C382.582 72.5816 382.598 71.7171 382.438 68.3749C382.538 63.009 384.328 60.3419 388.078 56.6288C393.559 51.9831 398.092 51.5854 405 51.9999Z" fill="#E4DCD4"/>
<path d="M124 290C126.982 294.473 126.602 298.756 126 304C123.65 308.879 120.343 311.897 116 315C113.309 315.636 113.309 315.636 111 316C111.052 312.79 111.147 309.583 111.25 306.375C111.264 305.471 111.278 304.567 111.293 303.636C111.505 297.839 112.178 294.439 116 290C118.932 288.533 120.883 289.22 124 290Z" fill="#E0D9D2"/>
<path d="M453 167C452.738 167.515 452.477 168.031 452.207 168.562C451.264 170.467 450.351 172.387 449.449 174.312C448.862 175.541 448.275 176.771 447.688 178C447.405 178.616 447.122 179.232 446.83 179.867C444.849 183.962 442.871 186.58 439 189C435.312 189 435.312 189 432 188C430.5 186.312 430.5 186.312 430 184C430.281 179.594 431.25 176.459 434 173C440.347 168.205 445.041 166.847 453 167Z" fill="#E0D9D2"/>
<path d="M81.875 286.75C85 287 85 287 86.875 288.062C88.6533 291.125 88.3589 293.531 88 297C85.7486 302.253 81.5624 305.584 76.625 308.312C72.9958 309.263 69.7476 309.127 66 309C66.2823 308.462 66.5646 307.925 66.8555 307.371C68.1673 304.653 69.2231 301.876 70.3125 299.062C72.2788 294.278 73.989 291.231 78 288C79 287 79 287 81.875 286.75Z" fill="#E1DAD3"/>
<path d="M74 184C76.3181 185.471 78.016 187.065 80 189C79.7018 192.579 79.2575 193.763 76.5625 196.25C72.3615 199.119 69.0354 199.741 64 199C59.0767 197.248 55.0581 195.401 51.875 191.188C51.5863 190.466 51.2975 189.744 51 189C51.8527 188.836 51.8527 188.836 52.7227 188.668C56.6171 187.869 59.9739 187.012 63.625 185.375C67.4979 183.798 69.8595 183.398 74 184Z" fill="#E0D9D2"/>
<path d="M418.938 164.75C419.957 164.745 420.977 164.74 422.027 164.734C425.053 165.005 427.258 165.728 430 167C430 167.66 430 168.32 430 169C428.484 169.743 428.484 169.743 426.938 170.5C422.94 172.746 420.406 175.732 417.578 179.293C415.135 181.935 413.026 181.998 409.5 182.25C406 182 406 182 404 180.938C402.321 177.685 403.049 175.446 404 172C408.443 166.597 412.01 164.715 418.938 164.75Z" fill="#E3DBD3"/>
<path d="M475 163C474.519 163.808 474.519 163.808 474.027 164.633C472.792 167.479 472.692 169.781 472.563 172.875C472.153 178.669 471.262 182.662 467.125 186.937C465 188 465 188 462.438 187.937C459.343 186.747 458.457 185.99 457 183C456.234 177.89 456.54 175.079 459.5 170.812C463.444 166.083 468.545 160.719 475 163Z" fill="#E3DBD4"/>
<path d="M385 233C385.146 236.562 385.234 240.123 385.313 243.688C385.375 245.199 385.375 245.199 385.439 246.74C385.563 254.244 385.563 254.244 382.641 258.168C380 260 380 260 377.438 260.625C375 260 375 260 372.688 258.062C370.387 253.888 370.104 250.666 371 246C373.405 240.28 378.304 233 385 233Z" fill="#E4DBD4"/>
<path d="M56 209C61.4491 209.796 64.278 212.076 68 216C71.2339 220.799 71.5351 224.381 71 230C69.7495 232.939 68.9408 234.448 66.1875 236.062C62.6603 235.962 60.6878 234.15 58 232C57.0699 229.21 56.813 227.235 56.6836 224.332C56.6417 223.439 56.5998 222.547 56.5566 221.627C56.5173 220.698 56.478 219.769 56.4375 218.812C56.3943 217.872 56.3511 216.932 56.3066 215.963C56.2006 213.642 56.0985 211.321 56 209Z" fill="#E0D9D2"/>
<path d="M82 144C84.5 145.5 84.5 145.5 86 147C85.6327 153.367 85.6327 153.367 82.625 156.375C77.8665 159.321 73.4632 159.676 68 159C65.1068 157.907 62.6889 156.564 60 155C60 154.01 60 153.02 60 152C60.5079 151.758 61.0158 151.515 61.5391 151.266C64.9417 149.609 67.9568 148.032 71 145.75C75.1063 143.355 77.2881 143.468 82 144Z" fill="#E2DAD3"/>
<path d="M219.188 83.1879C221 86.0004 221 86.0004 221.625 88.5629C221 91.0004 221 91.0004 218.938 93.3129C215.233 95.4413 213.227 95.5105 209 95.0004C203.809 93.3 200.5 91.2004 197 87.0004C195.688 84.1879 195.688 84.1879 195 82.0004C214.08 79.6827 214.08 79.6827 219.188 83.1879Z" fill="#E1D9D2"/>
<path d="M123 186C126.764 187.729 129.629 189.204 132.25 192.438C132.73 193.014 133.209 193.59 133.703 194.184C136.859 198.603 137.849 202.564 137 208C135.438 211.062 135.438 211.062 133 213C129.438 213.125 129.438 213.125 126 212C121.881 207.418 122.661 201.974 122.813 196.188C122.826 195.208 122.84 194.229 122.854 193.221C122.889 190.813 122.938 188.407 123 186Z" fill="#E3DBD3"/>
<path d="M426 198C428.842 200.304 430.892 203.027 433 206C433.763 207.072 434.526 208.145 435.313 209.25C436.675 211.469 437.858 213.666 439 216C427.317 216.624 427.317 216.624 422.438 214.312C421.633 213.549 420.829 212.786 420 212C419.216 211.257 418.433 210.515 417.625 209.75C415.368 205.93 415.703 203.387 416 199C419.319 197.34 422.457 197.109 426 198Z" fill="#E4DCD4"/>
<path d="M65.4375 264.687C68 267 68 267 69.1875 269.437C69 272 69 272 67.0625 274.812C63.8585 277.101 62.0303 277.614 58.1133 277.371C55.202 276.86 52.6173 275.873 49.8984 274.734C47.3194 273.737 44.7344 273.342 42 273C43.8135 268.384 47.0337 266.063 51.3125 263.75C56.7085 262.244 60.4803 262.254 65.4375 264.687Z" fill="#E1DAD3"/>
<path d="M34 146C38.982 146.453 42.3916 148.691 46 152C48.8734 155.453 50.2368 158.689 50.4375 163.188C50.0085 166.926 49.6109 168.389 47 171C40.6817 170.635 40.6817 170.635 37.8086 167.957C35.5502 164.265 35.37 161.085 35.3125 156.875C35.206 151.36 35.206 151.36 34 146Z" fill="#E2DBD3"/>
<path d="M375.562 92.8129C377.018 92.8226 377.018 92.8226 378.504 92.8325C381 93.0004 381 93.0004 383 94.0004C384.704 94.2266 386.413 94.4093 388.125 94.5629C389.035 94.6467 389.945 94.7305 390.883 94.8168C391.581 94.8774 392.28 94.938 393 95.0004C389.748 101.163 385.478 104.302 378.984 106.524C374.656 107.563 371.85 106.471 368.062 104.375C366 102 366 102 366 98.3754C367.623 92.8967 370.368 92.7368 375.562 92.8129Z" fill="#E3DBD4"/>
<path d="M351 170C351.66 170 352.32 170 353 170C354.402 172.012 354.402 172.012 355.938 174.688C356.442 175.558 356.946 176.428 357.465 177.324C357.971 178.207 358.478 179.09 359 180C359.55 180.861 360.101 181.722 360.668 182.609C362.51 185.915 362.406 188.276 362 192C360.5 194.438 360.5 194.438 359 196C355.543 196 352.967 195.96 350.422 193.434C347.061 188.499 346.251 184.896 347 179C348.036 175.842 349.515 172.97 351 170Z" fill="#DFD8D2"/>
<path d="M90 207C92.9133 208.736 94.4761 210.014 96.0625 213C96 215 96 215 94.3125 217.125C90.8193 219.958 88.3002 221.388 83.75 220.938C78.739 220.234 74.7964 218.351 71 215C69.5 212.188 69.5 212.188 69 210C69.6871 209.868 70.3741 209.735 71.082 209.598C72.4336 209.333 72.4336 209.333 73.8125 209.063C75.1525 208.802 75.1525 208.802 76.5195 208.536C86.1647 206.455 86.1647 206.455 90 207Z" fill="#E0D9D2"/>
<path d="M112 54C116.31 54.483 118.024 55.6018 120.75 58.9375C121.343 59.6478 121.936 60.358 122.547 61.0898C125.973 65.594 125.581 70.5327 125 76C123.313 78.75 123.313 78.75 121 80C117.627 80.0843 116.36 79.3234 113.859 77.0781C111.172 72.6297 111.563 68.7749 111.75 63.6875C111.768 62.7562 111.786 61.8248 111.805 60.8652C111.852 58.5758 111.917 56.2884 112 54Z" fill="#E4DCD4"/>
<path d="M306 5C306.182 5.58008 306.364 6.16016 306.551 6.75781C307.72 10.3918 308.839 13.7069 310.688 17.0625C312.498 21.115 312.5 23.573 312 28C310.313 30.5625 310.313 30.5625 308 32C305.5 32.0625 305.5 32.0625 303 31C299.111 26.7872 297.648 24.0209 297.711 18.2305C298.179 14.6153 301.358 5 306 5Z" fill="#E0D9D2"/>
<path d="M315 225C314.567 225.96 314.567 225.96 314.125 226.938C313.186 229.494 312.596 231.785 312.062 234.438C311.034 239.298 309.573 243.428 306 247C302.5 247.25 302.5 247.25 299 247C296.688 244.688 296.608 244.039 296.438 240.875C296.544 235.784 298.563 233.206 302.062 229.665C306.136 226.166 309.61 224.525 315 225Z" fill="#E3DBD3"/>
<path d="M34.0001 194C39.3707 195.967 42.2415 198.817 45.8126 203.25C47.5182 207.2 47.5694 210.762 47.0001 215C45.8751 217.562 45.8751 217.562 44.0001 219C41.0626 219.562 41.0626 219.562 38.0001 219C35.477 216.808 34.1492 215.071 33.682 211.715C33.6064 209.028 33.6514 206.373 33.7501 203.688C33.7681 202.756 33.7862 201.825 33.8048 200.865C33.8517 198.576 33.9174 196.288 34.0001 194Z" fill="#E2DAD3"/>
<path d="M22 229C24.5625 230.688 24.5625 230.688 26 233C25.9281 235.948 25.4439 237.435 23.625 239.75C19.896 242.619 15.4869 242.454 11 242C5.79133 240.351 3.06121 238.531 0 234C1.01063 233.732 2.02125 233.464 3.0625 233.188C5.73396 232.442 7.89068 231.579 10.4375 230.375C14.8288 228.68 17.329 228.464 22 229Z" fill="#E5DCD5"/>
<path d="M33 178C35 179.125 35 179.125 36 181C36 183.937 36 183.937 35 187C29.9219 191.817 26.4987 192.27 19.7109 192.234C16.4879 191.955 14.4906 191.061 12 189C17.4774 183.212 24.5753 176.069 33 178Z" fill="#E4DBD4"/>
<path d="M95 228C95.6394 228.289 96.2788 228.577 96.9375 228.875C99.5104 229.82 101.765 230.369 104.438 230.875C108.688 231.805 111.739 232.984 115 236C115.875 239.75 115.875 239.75 116 243C112.245 245.503 110.453 245.453 106 245C101.202 242.554 98.5136 239.748 96 235C95.25 231.125 95.25 231.125 95 228Z" fill="#E0D9D2"/>
<path d="M108 161C110.312 162.5 110.312 162.5 112 164C111.391 169.485 111.391 169.485 109.625 171.812C106.322 174.226 103.017 174.219 99.0625 174.312C98.0222 174.35 96.982 174.387 95.9102 174.426C92.352 173.905 91.2372 172.733 89 170C89.5079 169.685 90.0158 169.371 90.5391 169.047C91.5716 168.405 91.5716 168.405 92.625 167.75C93.3559 167.297 94.0868 166.845 94.8398 166.379C96.6656 165.213 98.4343 163.959 100.188 162.687C103.22 160.868 104.547 160.364 108 161Z" fill="#E0D9D2"/>
<path d="M110.375 264.25C113.022 266.015 114.578 267.155 116 270C115.875 272.625 115.875 272.625 115 275C112 277 112 277 109.312 277.125C105.043 275.675 102.94 273.285 99.9297 270.008C98.0762 268.079 96.1802 266.541 94 265C99.3681 261.952 104.662 262.134 110.375 264.25Z" fill="#DDD7D0"/>
<path d="M79 79.9999C81.5631 79.9186 84.1237 79.8593 86.6875 79.8124C87.4087 79.7873 88.13 79.7622 88.873 79.7363C93.4447 79.6736 96.4165 80.078 100 82.9999C100.812 85.6874 100.812 85.6874 101 87.9999C98.493 90.6159 96.265 91.3457 92.75 91.6249C87.7244 91.4752 85.1153 89.2499 81.5312 85.9218C79.9253 83.9062 79.4014 82.5199 79 79.9999Z" fill="#DFD8D1"/>
<path d="M369.438 152.75C374.718 152.867 379.841 153.938 385 155C383.209 158.815 381.686 160.773 378 163C374.626 163.871 371.48 164.268 368 164C364.875 162.062 364.875 162.062 363 160C363.764 155.164 364.112 153.137 369.438 152.75Z" fill="#DFD8D2"/>
<path d="M465.75 151.75C466.939 151.777 466.939 151.777 468.152 151.804C470.102 151.851 472.051 151.923 474 152C473.047 156.923 470.166 159.533 466.062 162.312C462.47 163.51 459.296 163.385 455.688 162.312C454 161 454 161 453 158.625C453 156 453 156 454.453 153.851C458.158 151.158 461.296 151.557 465.75 151.75Z" fill="#E2DAD3"/>
<path d="M465 128C464.55 129.961 464.09 131.919 463.625 133.875C463.37 134.966 463.114 136.056 462.851 137.18C462 140 462 140 460 142C456.875 142.125 456.875 142.125 454 142C452.666 135.816 452.666 135.816 454.125 132.25C457.449 128.261 459.943 126.433 465 128Z" fill="#DFD8D1"/>
<path d="M396 81.0003C392.756 82.2053 389.504 83.3861 386.25 84.5628C384.869 85.0761 384.869 85.0761 383.461 85.5999C382.571 85.9189 381.682 86.2379 380.766 86.5667C379.949 86.8652 379.132 87.1637 378.29 87.4712C375.787 88.0495 374.401 87.832 372 87.0003C373 85.0003 373 85.0003 374.794 84.2983C377.298 83.6265 379.802 82.9584 382.312 82.3128C383.181 82.0749 384.049 81.8371 384.943 81.5921C385.783 81.3723 386.623 81.1525 387.488 80.926C388.257 80.7241 389.026 80.5221 389.818 80.314C392.186 79.9736 393.742 80.267 396 81.0003Z" fill="#B7BCBA"/>
<path d="M211 14C211.33 14 211.66 14 212 14C211.626 21.5995 209.424 27.2402 206 34C205.01 34 204.02 34 203 34C203 30.3961 203.936 29.2376 205.875 26.25C208.414 22.1666 209.982 18.6821 211 14Z" fill="#C7C7C3"/>
<path d="M25 168C27.5663 169.232 29.9996 170.599 32.4375 172.062C35.264 173.701 37.7195 174.602 41 175C40.67 175.99 40.34 176.98 40 178C34.4069 176.602 30.2801 173.759 26 170C25.67 169.34 25.34 168.68 25 168Z" fill="#B7BCBA"/>
<path d="M148 473C148.66 473.33 149.32 473.66 150 474C148.454 476.164 146.976 478.022 145 479.812C142.39 482.667 141.385 485.399 140 489C139 487 139 487 140.062 483.25C141.824 478.74 144.411 476.19 148 473Z" fill="#D7D2CD"/>
<path d="M31 362C28.5206 365.719 27.2826 365.969 23 367C20.307 367.15 17.7013 367.093 15 367C17.99 365.464 21.0182 364.097 24.125 362.813C25.4282 362.266 25.4282 362.266 26.7578 361.707C29 361 29 361 31 362Z" fill="#AEB6B5"/>
<path d="M456.766 248.246C459.629 249.213 462.114 250.588 464.75 252.063C465.735 252.611 466.72 253.159 467.734 253.723C468.482 254.145 469.23 254.566 470 255C466.136 256.288 465.107 255.409 461.5 253.688C460.541 253.238 459.582 252.788 458.594 252.325C456 251 456 251 453 249C455 248 455 248 456.766 248.246Z" fill="#B6BBB9"/>
<path d="M317 20C317.33 20 317.66 20 318 20C318.218 25.4389 318.104 29.8708 316 35C315.01 35 314.02 35 313 35C313.205 34.2523 313.41 33.5047 313.621 32.7344C313.891 31.7495 314.16 30.7647 314.438 29.75C314.704 28.7755 314.971 27.8009 315.246 26.7969C315.855 24.5363 316.442 22.2738 317 20Z" fill="#C0C2BF"/>
<path d="M108 456C108.955 458.17 109.144 459.563 108.398 461.824C107.641 463.568 106.824 465.286 106 467C105.67 467 105.34 467 105 467C104.875 460.375 104.875 460.375 106 457C106.66 456.67 107.32 456.34 108 456Z" fill="#C0C2BF"/>
<path d="M72 137C77.7781 136.764 82.5132 137.132 88 139C87.67 139.99 87.34 140.98 87 142C85.8244 141.526 84.6487 141.051 83.4375 140.563C79.599 139.112 76.0726 138.424 72 138C72 137.67 72 137.34 72 137Z" fill="#AAB3B2"/>
<path d="M434 294C438.671 295.557 442.087 298.084 446 301C442.51 301 440.885 300.096 437.812 298.5C436.911 298.036 436.01 297.572 435.082 297.094C434.395 296.733 433.708 296.372 433 296C433.33 295.34 433.66 294.68 434 294Z" fill="#C2C4C1"/>
<path d="M475 187C475 187.99 475 188.98 475 190C473.25 191.605 473.25 191.605 471 193.188C470.257 193.717 469.515 194.247 468.75 194.793C468.173 195.191 467.595 195.59 467 196C466.34 195.01 465.68 194.02 465 193C465.554 192.734 466.109 192.469 466.68 192.195C467.404 191.842 468.129 191.489 468.875 191.125C469.594 190.777 470.314 190.429 471.055 190.07C473.151 189.034 473.151 189.034 475 187Z" fill="#C1C3C0"/>
<path d="M217 505C217.66 505.33 218.32 505.66 219 506C219 506.66 219 507.32 219 508C217.667 509.333 216.333 510.667 215 512C213.765 514.133 213.765 514.133 213 516C212.634 512.062 212.698 510.435 215 507.125C215.66 506.424 216.32 505.723 217 505Z" fill="#D6D2CC"/>
<path d="M398 460C398.99 460.33 399.98 460.66 401 461C401.73 463.066 401.73 463.066 402.188 465.562C402.346 466.389 402.505 467.215 402.668 468.066C402.778 468.704 402.887 469.343 403 470C399.328 466.92 398.432 464.752 398 460Z" fill="#9DAAAB"/>
<path d="M77 275C77.66 275.33 78.32 275.66 79 276C76.8823 278.329 74.9666 279.888 72 281C71.01 280.67 70.02 280.34 69 280C70.2852 279.136 71.5784 278.284 72.875 277.438C73.9539 276.724 73.9539 276.724 75.0547 275.996C75.6966 275.667 76.3386 275.339 77 275Z" fill="#C7C7C3"/>
<path d="M448 419C451.3 419.99 454.6 420.98 458 422C458 422.33 458 422.66 458 423C456.541 422.886 455.083 422.758 453.625 422.625C452.407 422.521 452.407 422.521 451.164 422.414C449 422 449 422 447 420C447.33 419.67 447.66 419.34 448 419Z" fill="#C2C4C0"/>
<path d="M59 420C56.6024 422.398 55.6673 422.343 52.375 422.625C51.5577 422.7 50.7405 422.775 49.8984 422.852C49.272 422.901 48.6455 422.95 48 423C54.6667 418.556 54.6667 418.556 59 420Z" fill="#C0C3BF"/>
<path d="M81 445C81.33 445.99 81.66 446.98 82 448C80.35 449.65 78.7 451.3 77 453C76.34 452.67 75.68 452.34 75 452C75.4744 451.567 75.9487 451.134 76.4375 450.688C78.2369 448.977 78.2369 448.977 79 446C79.66 445.67 80.32 445.34 81 445Z" fill="#B8BDBB"/>
</svg>
