<svg width="747" height="364" viewBox="0 0 747 364" fill="none" xmlns="http://www.w3.org/2000/svg">
<path fill-rule="evenodd" clip-rule="evenodd" d="M340.727 251.562C313.864 313.061 252.503 356.041 181.103 356.041C84.9487 356.041 7 278.092 7 181.937C7 85.7827 84.9487 7.83398 181.103 7.83398C252.472 7.83398 313.811 50.7762 340.692 112.232H348.306C321.001 46.8121 256.422 0.833984 181.103 0.833984C81.0827 0.833984 0 81.9167 0 181.937C0 281.958 81.0827 363.041 181.103 363.041C256.452 363.041 321.054 317.025 348.339 251.562H340.727Z" fill="white"/>
<path d="M178.591 205V158.455H196.045C199.621 158.455 202.621 159.076 205.045 160.318C207.485 161.561 209.326 163.303 210.568 165.545C211.826 167.773 212.455 170.371 212.455 173.341C212.455 176.326 211.818 178.917 210.545 181.114C209.288 183.295 207.432 184.985 204.977 186.182C202.523 187.364 199.508 187.955 195.932 187.955H183.5V180.955H194.795C196.886 180.955 198.598 180.667 199.932 180.091C201.265 179.5 202.25 178.644 202.886 177.523C203.538 176.386 203.864 174.992 203.864 173.341C203.864 171.689 203.538 170.28 202.886 169.114C202.235 167.932 201.242 167.038 199.909 166.432C198.576 165.811 196.856 165.5 194.75 165.5H187.023V205H178.591ZM202.636 183.909L214.159 205H204.75L193.432 183.909H202.636ZM234.807 205.682C231.307 205.682 228.284 204.955 225.739 203.5C223.208 202.03 221.261 199.955 219.898 197.273C218.534 194.576 217.852 191.402 217.852 187.75C217.852 184.159 218.534 181.008 219.898 178.295C221.277 175.568 223.201 173.447 225.67 171.932C228.14 170.402 231.042 169.636 234.375 169.636C236.527 169.636 238.557 169.985 240.466 170.682C242.39 171.364 244.087 172.424 245.557 173.864C247.042 175.303 248.208 177.136 249.057 179.364C249.905 181.576 250.33 184.212 250.33 187.273V189.795H221.716V184.25H242.443C242.428 182.674 242.087 181.273 241.42 180.045C240.754 178.803 239.822 177.826 238.625 177.114C237.443 176.402 236.064 176.045 234.489 176.045C232.807 176.045 231.33 176.455 230.057 177.273C228.784 178.076 227.792 179.136 227.08 180.455C226.383 181.758 226.027 183.189 226.011 184.75V189.591C226.011 191.621 226.383 193.364 227.125 194.818C227.867 196.258 228.905 197.364 230.239 198.136C231.572 198.894 233.133 199.273 234.92 199.273C236.117 199.273 237.201 199.106 238.17 198.773C239.14 198.424 239.981 197.917 240.693 197.25C241.405 196.583 241.943 195.758 242.307 194.773L249.989 195.636C249.504 197.667 248.58 199.439 247.216 200.955C245.867 202.455 244.14 203.621 242.034 204.455C239.928 205.273 237.519 205.682 234.807 205.682ZM272.472 218.818C269.517 218.818 266.979 218.417 264.858 217.614C262.737 216.826 261.032 215.765 259.744 214.432C258.456 213.098 257.562 211.621 257.062 210L264.472 208.205C264.805 208.886 265.29 209.561 265.926 210.227C266.563 210.909 267.419 211.47 268.494 211.909C269.585 212.364 270.956 212.591 272.608 212.591C274.941 212.591 276.873 212.023 278.403 210.886C279.934 209.765 280.699 207.917 280.699 205.341V198.727H280.29C279.866 199.576 279.244 200.447 278.426 201.341C277.623 202.235 276.555 202.985 275.222 203.591C273.903 204.197 272.244 204.5 270.244 204.5C267.562 204.5 265.131 203.871 262.949 202.614C260.782 201.341 259.055 199.447 257.767 196.932C256.494 194.402 255.858 191.235 255.858 187.432C255.858 183.598 256.494 180.364 257.767 177.727C259.055 175.076 260.79 173.068 262.972 171.705C265.153 170.326 267.585 169.636 270.267 169.636C272.313 169.636 273.994 169.985 275.312 170.682C276.646 171.364 277.706 172.189 278.494 173.159C279.282 174.114 279.881 175.015 280.29 175.864H280.744V170.091H288.858V205.568C288.858 208.553 288.146 211.023 286.722 212.977C285.297 214.932 283.35 216.394 280.881 217.364C278.411 218.333 275.608 218.818 272.472 218.818ZM272.54 198.045C274.282 198.045 275.767 197.621 276.994 196.773C278.222 195.924 279.153 194.705 279.79 193.114C280.426 191.523 280.744 189.614 280.744 187.386C280.744 185.189 280.426 183.265 279.79 181.614C279.169 179.962 278.244 178.682 277.017 177.773C275.805 176.848 274.313 176.386 272.54 176.386C270.706 176.386 269.176 176.864 267.949 177.818C266.722 178.773 265.797 180.083 265.176 181.75C264.555 183.402 264.244 185.28 264.244 187.386C264.244 189.523 264.555 191.394 265.176 193C265.813 194.591 266.744 195.833 267.972 196.727C269.214 197.606 270.737 198.045 272.54 198.045ZM312.744 205.682C309.244 205.682 306.222 204.955 303.676 203.5C301.146 202.03 299.199 199.955 297.835 197.273C296.472 194.576 295.79 191.402 295.79 187.75C295.79 184.159 296.472 181.008 297.835 178.295C299.214 175.568 301.138 173.447 303.608 171.932C306.078 170.402 308.979 169.636 312.312 169.636C314.464 169.636 316.494 169.985 318.403 170.682C320.328 171.364 322.025 172.424 323.494 173.864C324.979 175.303 326.146 177.136 326.994 179.364C327.843 181.576 328.267 184.212 328.267 187.273V189.795H299.653V184.25H320.381C320.366 182.674 320.025 181.273 319.358 180.045C318.691 178.803 317.759 177.826 316.562 177.114C315.381 176.402 314.002 176.045 312.426 176.045C310.744 176.045 309.267 176.455 307.994 177.273C306.722 178.076 305.729 179.136 305.017 180.455C304.32 181.758 303.964 183.189 303.949 184.75V189.591C303.949 191.621 304.32 193.364 305.062 194.818C305.805 196.258 306.843 197.364 308.176 198.136C309.509 198.894 311.07 199.273 312.858 199.273C314.055 199.273 315.138 199.106 316.108 198.773C317.078 198.424 317.919 197.917 318.631 197.25C319.343 196.583 319.881 195.758 320.244 194.773L327.926 195.636C327.441 197.667 326.517 199.439 325.153 200.955C323.805 202.455 322.078 203.621 319.972 204.455C317.866 205.273 315.456 205.682 312.744 205.682ZM343.455 184.545V205H335.227V170.091H343.091V176.023H343.5C344.303 174.068 345.583 172.515 347.341 171.364C349.114 170.212 351.303 169.636 353.909 169.636C356.318 169.636 358.417 170.152 360.205 171.182C362.008 172.212 363.402 173.705 364.386 175.659C365.386 177.614 365.879 179.985 365.864 182.773V205H357.636V184.045C357.636 181.712 357.03 179.886 355.818 178.568C354.621 177.25 352.962 176.591 350.841 176.591C349.402 176.591 348.121 176.909 347 177.545C345.894 178.167 345.023 179.068 344.386 180.25C343.765 181.432 343.455 182.864 343.455 184.545ZM389.682 205.682C386.182 205.682 383.159 204.955 380.614 203.5C378.083 202.03 376.136 199.955 374.773 197.273C373.409 194.576 372.727 191.402 372.727 187.75C372.727 184.159 373.409 181.008 374.773 178.295C376.152 175.568 378.076 173.447 380.545 171.932C383.015 170.402 385.917 169.636 389.25 169.636C391.402 169.636 393.432 169.985 395.341 170.682C397.265 171.364 398.962 172.424 400.432 173.864C401.917 175.303 403.083 177.136 403.932 179.364C404.78 181.576 405.205 184.212 405.205 187.273V189.795H376.591V184.25H397.318C397.303 182.674 396.962 181.273 396.295 180.045C395.629 178.803 394.697 177.826 393.5 177.114C392.318 176.402 390.939 176.045 389.364 176.045C387.682 176.045 386.205 176.455 384.932 177.273C383.659 178.076 382.667 179.136 381.955 180.455C381.258 181.758 380.902 183.189 380.886 184.75V189.591C380.886 191.621 381.258 193.364 382 194.818C382.742 196.258 383.78 197.364 385.114 198.136C386.447 198.894 388.008 199.273 389.795 199.273C390.992 199.273 392.076 199.106 393.045 198.773C394.015 198.424 394.856 197.917 395.568 197.25C396.28 196.583 396.818 195.758 397.182 194.773L404.864 195.636C404.379 197.667 403.455 199.439 402.091 200.955C400.742 202.455 399.015 203.621 396.909 204.455C394.803 205.273 392.394 205.682 389.682 205.682ZM412.165 205V170.091H420.142V175.909H420.506C421.142 173.894 422.233 172.341 423.778 171.25C425.339 170.144 427.119 169.591 429.119 169.591C429.574 169.591 430.081 169.614 430.642 169.659C431.218 169.689 431.695 169.742 432.074 169.818V177.386C431.725 177.265 431.172 177.159 430.415 177.068C429.672 176.962 428.953 176.909 428.256 176.909C426.756 176.909 425.407 177.235 424.21 177.886C423.028 178.523 422.097 179.409 421.415 180.545C420.733 181.682 420.392 182.992 420.392 184.477V205H412.165ZM446.96 205.705C444.748 205.705 442.756 205.311 440.983 204.523C439.225 203.72 437.831 202.538 436.801 200.977C435.786 199.417 435.278 197.492 435.278 195.205C435.278 193.235 435.642 191.606 436.369 190.318C437.097 189.03 438.089 188 439.347 187.227C440.604 186.455 442.021 185.871 443.597 185.477C445.188 185.068 446.831 184.773 448.528 184.591C450.574 184.379 452.233 184.189 453.506 184.023C454.778 183.841 455.703 183.568 456.278 183.205C456.869 182.826 457.165 182.242 457.165 181.455V181.318C457.165 179.606 456.657 178.28 455.642 177.341C454.627 176.402 453.165 175.932 451.256 175.932C449.241 175.932 447.642 176.371 446.46 177.25C445.294 178.129 444.506 179.167 444.097 180.364L436.415 179.273C437.021 177.152 438.021 175.379 439.415 173.955C440.809 172.515 442.513 171.439 444.528 170.727C446.544 170 448.771 169.636 451.21 169.636C452.892 169.636 454.566 169.833 456.233 170.227C457.9 170.621 459.422 171.273 460.801 172.182C462.18 173.076 463.286 174.295 464.119 175.841C464.968 177.386 465.392 179.318 465.392 181.636V205H457.483V200.205H457.21C456.71 201.174 456.006 202.083 455.097 202.932C454.203 203.765 453.074 204.439 451.71 204.955C450.362 205.455 448.778 205.705 446.96 205.705ZM449.097 199.659C450.748 199.659 452.18 199.333 453.392 198.682C454.604 198.015 455.536 197.136 456.188 196.045C456.854 194.955 457.188 193.765 457.188 192.477V188.364C456.93 188.576 456.491 188.773 455.869 188.955C455.263 189.136 454.581 189.295 453.824 189.432C453.066 189.568 452.316 189.689 451.574 189.795C450.831 189.902 450.188 189.992 449.642 190.068C448.415 190.235 447.316 190.508 446.347 190.886C445.377 191.265 444.612 191.795 444.051 192.477C443.491 193.144 443.21 194.008 443.21 195.068C443.21 196.583 443.763 197.727 444.869 198.5C445.975 199.273 447.384 199.659 449.097 199.659ZM491.097 170.091V176.455H471.028V170.091H491.097ZM475.983 161.727H484.21V194.5C484.21 195.606 484.377 196.455 484.71 197.045C485.059 197.621 485.513 198.015 486.074 198.227C486.634 198.439 487.256 198.545 487.938 198.545C488.453 198.545 488.922 198.508 489.347 198.432C489.786 198.356 490.119 198.288 490.347 198.227L491.733 204.659C491.294 204.811 490.665 204.977 489.847 205.159C489.044 205.341 488.059 205.447 486.892 205.477C484.831 205.538 482.975 205.227 481.324 204.545C479.672 203.848 478.362 202.773 477.392 201.318C476.438 199.864 475.968 198.045 475.983 195.864V161.727ZM497.977 205V170.091H506.205V205H497.977ZM502.114 165.136C500.811 165.136 499.689 164.705 498.75 163.841C497.811 162.962 497.341 161.909 497.341 160.682C497.341 159.439 497.811 158.386 498.75 157.523C499.689 156.644 500.811 156.205 502.114 156.205C503.432 156.205 504.553 156.644 505.477 157.523C506.417 158.386 506.886 159.439 506.886 160.682C506.886 161.909 506.417 162.962 505.477 163.841C504.553 164.705 503.432 165.136 502.114 165.136ZM545.847 170.091L533.415 205H524.324L511.892 170.091H520.665L528.688 196.023H529.051L537.097 170.091H545.847ZM565.807 205.682C562.307 205.682 559.284 204.955 556.739 203.5C554.208 202.03 552.261 199.955 550.898 197.273C549.534 194.576 548.852 191.402 548.852 187.75C548.852 184.159 549.534 181.008 550.898 178.295C552.277 175.568 554.201 173.447 556.67 171.932C559.14 170.402 562.042 169.636 565.375 169.636C567.527 169.636 569.557 169.985 571.466 170.682C573.39 171.364 575.087 172.424 576.557 173.864C578.042 175.303 579.208 177.136 580.057 179.364C580.905 181.576 581.33 184.212 581.33 187.273V189.795H552.716V184.25H573.443C573.428 182.674 573.087 181.273 572.42 180.045C571.754 178.803 570.822 177.826 569.625 177.114C568.443 176.402 567.064 176.045 565.489 176.045C563.807 176.045 562.33 176.455 561.057 177.273C559.784 178.076 558.792 179.136 558.08 180.455C557.383 181.758 557.027 183.189 557.011 184.75V189.591C557.011 191.621 557.383 193.364 558.125 194.818C558.867 196.258 559.905 197.364 561.239 198.136C562.572 198.894 564.133 199.273 565.92 199.273C567.117 199.273 568.201 199.106 569.17 198.773C570.14 198.424 570.981 197.917 571.693 197.25C572.405 196.583 572.943 195.758 573.307 194.773L580.989 195.636C580.504 197.667 579.58 199.439 578.216 200.955C576.867 202.455 575.14 203.621 573.034 204.455C570.928 205.273 568.519 205.682 565.807 205.682ZM644.369 174.159H635.869C635.627 172.765 635.18 171.53 634.528 170.455C633.877 169.364 633.066 168.439 632.097 167.682C631.127 166.924 630.021 166.356 628.778 165.977C627.551 165.583 626.225 165.386 624.801 165.386C622.271 165.386 620.028 166.023 618.074 167.295C616.119 168.553 614.589 170.402 613.483 172.841C612.377 175.265 611.824 178.227 611.824 181.727C611.824 185.288 612.377 188.288 613.483 190.727C614.604 193.152 616.134 194.985 618.074 196.227C620.028 197.455 622.263 198.068 624.778 198.068C626.172 198.068 627.475 197.886 628.688 197.523C629.915 197.144 631.013 196.591 631.983 195.864C632.968 195.136 633.794 194.242 634.46 193.182C635.142 192.121 635.612 190.909 635.869 189.545L644.369 189.591C644.051 191.803 643.362 193.879 642.301 195.818C641.256 197.758 639.884 199.47 638.188 200.955C636.491 202.424 634.506 203.576 632.233 204.409C629.96 205.227 627.438 205.636 624.665 205.636C620.574 205.636 616.922 204.689 613.71 202.795C610.498 200.902 607.968 198.167 606.119 194.591C604.271 191.015 603.347 186.727 603.347 181.727C603.347 176.712 604.278 172.424 606.142 168.864C608.006 165.288 610.544 162.553 613.756 160.659C616.968 158.765 620.604 157.818 624.665 157.818C627.256 157.818 629.665 158.182 631.892 158.909C634.119 159.636 636.104 160.705 637.847 162.114C639.589 163.508 641.021 165.22 642.142 167.25C643.278 169.265 644.021 171.568 644.369 174.159ZM661.773 205.705C659.561 205.705 657.568 205.311 655.795 204.523C654.038 203.72 652.644 202.538 651.614 200.977C650.598 199.417 650.091 197.492 650.091 195.205C650.091 193.235 650.455 191.606 651.182 190.318C651.909 189.03 652.902 188 654.159 187.227C655.417 186.455 656.833 185.871 658.409 185.477C660 185.068 661.644 184.773 663.341 184.591C665.386 184.379 667.045 184.189 668.318 184.023C669.591 183.841 670.515 183.568 671.091 183.205C671.682 182.826 671.977 182.242 671.977 181.455V181.318C671.977 179.606 671.47 178.28 670.455 177.341C669.439 176.402 667.977 175.932 666.068 175.932C664.053 175.932 662.455 176.371 661.273 177.25C660.106 178.129 659.318 179.167 658.909 180.364L651.227 179.273C651.833 177.152 652.833 175.379 654.227 173.955C655.621 172.515 657.326 171.439 659.341 170.727C661.356 170 663.583 169.636 666.023 169.636C667.705 169.636 669.379 169.833 671.045 170.227C672.712 170.621 674.235 171.273 675.614 172.182C676.992 173.076 678.098 174.295 678.932 175.841C679.78 177.386 680.205 179.318 680.205 181.636V205H672.295V200.205H672.023C671.523 201.174 670.818 202.083 669.909 202.932C669.015 203.765 667.886 204.439 666.523 204.955C665.174 205.455 663.591 205.705 661.773 205.705ZM663.909 199.659C665.561 199.659 666.992 199.333 668.205 198.682C669.417 198.015 670.348 197.136 671 196.045C671.667 194.955 672 193.765 672 192.477V188.364C671.742 188.576 671.303 188.773 670.682 188.955C670.076 189.136 669.394 189.295 668.636 189.432C667.879 189.568 667.129 189.689 666.386 189.795C665.644 189.902 665 189.992 664.455 190.068C663.227 190.235 662.129 190.508 661.159 190.886C660.189 191.265 659.424 191.795 658.864 192.477C658.303 193.144 658.023 194.008 658.023 195.068C658.023 196.583 658.576 197.727 659.682 198.5C660.788 199.273 662.197 199.659 663.909 199.659ZM688.477 205V170.091H696.455V175.909H696.818C697.455 173.894 698.545 172.341 700.091 171.25C701.652 170.144 703.432 169.591 705.432 169.591C705.886 169.591 706.394 169.614 706.955 169.659C707.53 169.689 708.008 169.742 708.386 169.818V177.386C708.038 177.265 707.485 177.159 706.727 177.068C705.985 176.962 705.265 176.909 704.568 176.909C703.068 176.909 701.72 177.235 700.523 177.886C699.341 178.523 698.409 179.409 697.727 180.545C697.045 181.682 696.705 182.992 696.705 184.477V205H688.477ZM727.869 205.682C724.369 205.682 721.347 204.955 718.801 203.5C716.271 202.03 714.324 199.955 712.96 197.273C711.597 194.576 710.915 191.402 710.915 187.75C710.915 184.159 711.597 181.008 712.96 178.295C714.339 175.568 716.263 173.447 718.733 171.932C721.203 170.402 724.104 169.636 727.438 169.636C729.589 169.636 731.619 169.985 733.528 170.682C735.453 171.364 737.15 172.424 738.619 173.864C740.104 175.303 741.271 177.136 742.119 179.364C742.968 181.576 743.392 184.212 743.392 187.273V189.795H714.778V184.25H735.506C735.491 182.674 735.15 181.273 734.483 180.045C733.816 178.803 732.884 177.826 731.688 177.114C730.506 176.402 729.127 176.045 727.551 176.045C725.869 176.045 724.392 176.455 723.119 177.273C721.847 178.076 720.854 179.136 720.142 180.455C719.445 181.758 719.089 183.189 719.074 184.75V189.591C719.074 191.621 719.445 193.364 720.188 194.818C720.93 196.258 721.968 197.364 723.301 198.136C724.634 198.894 726.195 199.273 727.983 199.273C729.18 199.273 730.263 199.106 731.233 198.773C732.203 198.424 733.044 197.917 733.756 197.25C734.468 196.583 735.006 195.758 735.369 194.773L743.051 195.636C742.566 197.667 741.642 199.439 740.278 200.955C738.93 202.455 737.203 203.621 735.097 204.455C732.991 205.273 730.581 205.682 727.869 205.682Z" fill="white"/>
</svg>
